<svg width="100" height="100" viewBox="0 0 100 100" fill="none" xmlns="http://www.w3.org/2000/svg"><path d="M100 49.9969C100 51.478 99.9378 52.9487 99.8032 54.3988C99.6996 55.6623 99.5443 56.9156 99.3371 58.1471C98.4982 63.2739 96.8721 68.1419 94.5935 72.6173C93.3402 75.0823 91.8902 77.4324 90.2641 79.6385C89.9948 80.0114 89.7152 80.3739 89.4148 80.7364C89.1869 81.0264 88.9591 81.3164 88.7209 81.5961C85.6137 85.4283 81.9265 88.7944 77.8042 91.5598H77.7939C77.535 91.7359 77.2657 91.912 77.0067 92.0663C75.2667 93.1963 73.4542 94.2103 71.5691 95.102C68.928 96.3863 66.1522 97.4221 63.2729 98.2092C61.0357 98.8307 58.7364 99.2967 56.3956 99.5867C56.2092 99.6168 56.0228 99.6385 55.8363 99.6582C54.1585 99.856 52.4599 99.97 50.7405 99.9896C50.492 100 50.2538 100 50.0052 100H49.9948C49.7566 100 49.508 100 49.2698 99.9896C33.9513 99.7721 20.3004 92.667 11.2688 81.6271C11.0409 81.3371 10.8027 81.0461 10.5748 80.7561C3.94614 72.2745 0 61.595 0 49.9958C0 22.3832 22.3925 0 49.9948 0C76.6649 0 98.4567 20.8597 99.9275 47.1673C99.9689 48.1015 100 49.0544 100 49.9969Z" fill="#70939B"/><path d="M57.3168 47.9741C57.3108 47.9791 57.3058 47.9851 57.2998 47.9901L57.3128 47.9761L57.3168 47.9741Z" fill="#DBA18F"/><path d="M56.7115 48.5396C56.8928 48.3418 57.0937 48.1626 57.3009 47.9907L56.318 48.9705C56.4485 48.8265 56.579 48.6846 56.7115 48.5396Z" fill="#DBA18F"/><path d="M59.1797 52.7944C58.8534 51.7742 58.6888 50.7084 58.6888 49.6406V46.9684C58.2237 47.2946 57.7514 47.6126 57.3174 47.9751L57.3133 47.9772L56.3169 48.9725C55.8332 49.5059 55.3392 50.0186 54.7996 50.4847L54.7965 50.4889C54.3397 50.8835 53.8581 51.2491 53.2895 51.5432C52.4329 51.9834 51.2418 51.9938 50.1419 51.9399V55.131L50.1429 55.1289L50.0829 60.9715H50.1233H50.1471C54.1719 60.8907 57.738 58.9187 59.9876 55.9037L60.058 55.769C60.1243 55.7866 59.5992 54.1046 59.1797 52.7944Z" fill="#E0A579"/><path d="M50.1419 55.13V51.9389L50.1408 51.9378C50.0052 51.9441 49.8643 51.9451 49.7255 51.9493C49.5826 51.9534 49.4407 51.9617 49.2967 51.9617C49.132 51.9617 48.9715 51.9492 48.811 51.9409C48.6929 51.9368 48.5759 51.9379 48.4609 51.9265C48.2734 51.9089 48.0984 51.8716 47.9213 51.8384C47.8394 51.8229 47.7514 51.8167 47.6727 51.798C47.421 51.7359 47.1859 51.652 46.9684 51.5422C45.5422 50.8089 44.5831 49.6768 43.5463 48.5406C42.8358 47.7587 41.8881 47.2221 41.0419 46.5841L40.9332 50.2983C40.9166 50.8482 40.8358 51.3879 40.6877 51.9171C40.3169 53.2481 39.6168 55.7918 39.6976 55.768L39.7017 55.7784C41.0212 57.5867 42.7954 59.0305 44.8793 59.9244H44.8804L44.8835 59.9254C46.1087 60.465 47.4511 60.8089 48.8514 60.9239H48.8534C49.1631 60.9456 49.4728 60.9705 49.7825 60.9705H50.0124H50.0849L50.1471 55.1279L50.1419 55.13Z" fill="#EAB081"/><path d="M39.2025 46.059C39.2936 46.7499 39.6271 47.3858 40.145 47.854L44.6639 51.9358C43.651 47.4179 41.1517 43.7297 38.3863 39.8416L39.2025 46.059Z" fill="#F0B784"/><path d="M61.0792 41.711L61.8602 35.4376C61.8519 32.9332 61.9347 30.4133 61.8301 27.912C61.768 26.435 61.2998 25.5888 59.9202 24.7737C58.232 23.7753 56.9404 24.2848 55.4438 24.8027C54.9508 24.9736 54.436 25.1445 53.8767 25.2636C52.2796 25.6023 50.5148 25.9037 48.9839 25.2077C46.4712 24.0663 44.0414 22.2092 41.0357 22.3729C40.5013 22.4019 39.9648 22.5065 39.4966 22.7426C38.5065 23.2408 37.9679 24.2455 37.6779 25.2315C36.9601 27.6686 38.0414 29.7162 37.768 32.2268C37.7877 33.3589 37.8084 34.4837 37.8281 35.6147L38.3843 39.8416C41.1507 43.7297 43.6489 47.4169 44.6618 51.9358L45.7411 52.9115C46.2486 53.3703 46.9104 53.622 47.595 53.6178L49.9037 53.6002L52.2185 53.5826C52.899 53.5774 53.5536 53.3185 54.0539 52.8555L55.6603 51.3713C55.7328 47.276 57.189 43.1839 61.0792 41.711Z" fill="#FFC28E"/><path d="M61.0792 41.711C57.189 43.1849 55.7328 47.276 55.6623 51.3734L59.9099 47.448C60.2413 47.1414 60.4547 46.7281 60.5106 46.2786L61.0792 41.711Z" fill="#F0B784"/><path d="M39.2957 35.5536C39.1227 34.4381 38.9933 33.5495 38.9156 33.3019C38.8421 33.0627 38.7198 32.7871 38.4505 32.7312C38.3055 32.7012 38.144 32.8711 38.0176 32.7975C37.0502 32.232 36.4485 32.8814 36.145 33.7856C35.7887 34.8431 35.8944 35.5339 36.3894 36.4764C36.9653 37.5702 37.3288 38.7747 37.8125 39.9109C37.9368 40.204 38.464 41.8664 38.9001 41.8643C38.9052 41.8643 41.0078 41.8477 41.0078 41.8477C40.3066 41.854 39.6903 38.1067 39.2957 35.5536Z" fill="#FFC28E"/><path d="M60.3884 35.3982C60.5065 34.5997 60.6825 33.8177 61.1217 32.9353C61.3309 32.5179 61.7897 32.0269 62.2382 32.2423C62.8441 32.5355 63.2781 33.2543 63.5339 33.8498C63.9275 34.7654 63.5432 35.2429 63.1652 36.1181C62.9207 36.6856 61.2076 41.6986 60.8306 41.7017L58.7219 41.7172C59.1766 40.3501 59.8343 38.9363 60.0911 37.5308C60.2309 36.7633 60.289 36.0756 60.3884 35.3982Z" fill="#FFC28E"/><path d="M38.8306 37.623C38.6235 35.709 38.4775 33.7794 38.115 31.8892C37.6313 29.3754 39.0264 26.7685 40.5054 24.6121C40.7468 24.26 41.0347 23.8912 41.4738 23.7669C42.0673 23.5981 42.6743 23.9368 43.1859 24.2517C44.9021 25.3071 48.7789 26.6546 48.7789 26.6546C48.7789 26.6546 52.8172 26.782 54.754 26.3635C56.0859 26.0756 57.8892 25.1134 59.2398 25.8902C60.3418 26.523 60.6401 28.494 61.0916 29.6458L61.1683 39.1631L62.4164 35.3589C63.4086 32.0135 63.6613 24.2952 63.6613 24.2952C63.6613 24.2952 58.2879 18.8348 55.1383 19.4283C56.2548 19.219 58.2972 19.5246 59.4127 19.3154C55.1641 18.0124 51.6686 16.7789 48.1678 17.3547C44.666 17.9306 41.4034 19.4707 38.6763 21.5298C37.4624 22.4474 35.6178 24.7644 35.6178 24.7644C35.6178 24.7644 35.6458 33.0451 38.8306 37.623Z" fill="#393B42"/><path d="M44.9001 45.4718C46.2703 45.8384 48.2703 46.203 50.6805 46.0601C52.4982 45.9534 54.0249 45.5878 55.1725 45.218C54.8027 45.9669 54.4329 46.7157 54.0632 47.4645C53.45 47.8353 51.709 48.7778 49.4386 48.5085C48.2817 48.3708 47.3848 47.9658 46.8141 47.6427C46.175 46.9197 45.537 46.1968 44.9001 45.4718Z" fill="white"/><path d="M48.0466 42.0093L49.2408 43.2998C49.4863 43.4034 50.5106 43.799 51.7079 43.3785C53.0709 42.9011 53.6168 41.7328 53.709 41.5298L52.4526 44.8721C50.464 44.7302 50.609 44.7405 48.6204 44.5997L48.0466 42.0093Z" fill="#E0A579"/><path d="M50.0363 31.1621C50.0342 31.1621 50.0311 31.1631 50.028 31.1631H50.0269C48.464 31.1631 46.9001 31.1352 45.3361 31.0875C43.6272 31.0337 41.9182 30.956 40.2103 30.8452C39.883 30.8245 39.5671 30.783 39.2564 30.7375C39.2263 30.7333 39.1942 30.7312 39.1642 30.7271C38.5686 30.6308 38.0249 30.4837 37.5298 30.3066C37.1134 30.1585 36.725 29.9928 36.4122 29.7991C36.4733 29.8757 36.5334 29.9524 36.5945 30.03C36.8089 30.2952 37.0844 30.5345 37.3931 30.7561C37.4708 30.812 37.564 30.8555 37.6468 30.9084C37.8364 31.0285 38.0166 31.1548 38.2289 31.2574C38.5469 31.4096 38.897 31.5308 39.2553 31.6365C39.7121 31.7711 40.1906 31.8747 40.6919 31.9213C43.8032 32.2103 46.9166 32.3542 50.0259 32.3542C50.029 32.3542 50.0321 32.3542 50.0352 32.3542V31.1621H50.0363Z" fill="#F9CB31"/><path d="M37.3289 28.0539C37.2377 28.0425 37.1455 28.0311 37.0533 28.0197C37.1445 28.0311 37.2367 28.0435 37.3289 28.0549V28.0539Z" fill="#F9CB31"/><path d="M45.9016 24.6339C46.0922 25.2087 46.2776 25.7866 46.4537 26.3635L46.4547 26.3656C46.2786 25.7887 46.0932 25.2097 45.9016 24.6339Z" fill="#E8BB95"/><path d="M38.5635 28.2061C38.1523 28.1616 37.74 28.1025 37.3278 28.0539V28.0549C37.74 28.1046 38.1523 28.1616 38.5635 28.2061Z" fill="#3D3B36"/><path d="M45.9027 24.6339C45.5495 23.5681 45.1766 22.522 44.8069 21.5184C45.1766 22.521 45.5484 23.5681 45.9027 24.6339Z" fill="#3D3B36"/><path d="M50.0363 11.3351H50.0332L50.0269 11.3361V27.5525H50.028L50.0363 27.5536V11.3351Z" fill="#ECBB1A"/><path d="M50.0269 32.4744V32.3521C46.9177 32.3521 43.8043 32.2082 40.6929 31.9192C40.1916 31.8736 39.7152 31.769 39.2574 31.6344H39.2563C38.8969 31.5277 38.5479 31.4065 38.2299 31.2553C38.0176 31.1528 37.8374 31.0264 37.6479 30.9063C37.565 30.8534 37.4718 30.8099 37.3941 30.754C37.0854 30.5324 36.8099 30.2931 36.5955 30.028C36.5344 29.9513 36.4744 29.8747 36.4133 29.797C36.7261 29.9917 37.1144 30.1564 37.5308 30.3045C38.0269 30.4816 38.5697 30.6297 39.1652 30.725C39.1952 30.7292 39.2274 30.7312 39.2574 30.7354C39.5681 30.782 39.884 30.8234 40.2113 30.8431C41.9192 30.9539 43.6282 31.0326 45.3371 31.0854C46.9011 31.1331 48.4651 31.1611 50.028 31.1611V30.5748V29.8571V29.333V28.8379C48.7571 28.8379 47.4842 28.813 46.2113 28.7664C45.8332 28.7519 45.4542 28.7229 45.0751 28.7043C44.1802 28.6618 43.2853 28.6204 42.3905 28.5541C41.9316 28.521 41.4718 28.4702 41.0119 28.4309C40.4847 28.3853 39.9565 28.3428 39.4293 28.289H39.4283C39.1403 28.261 38.8524 28.2361 38.5645 28.204C38.1533 28.1595 37.7411 28.1015 37.3289 28.0528C37.2377 28.0414 37.1455 28.029 37.0533 28.0176C36.376 27.9347 35.6986 27.8612 35.0223 27.7659C35.0223 27.7628 35.0212 27.7597 35.0212 27.7576C34.8493 27.7328 34.6784 27.7162 34.5065 27.6913C34.3573 27.798 34.2724 27.8602 34.1243 27.9669C34.0642 28.4847 34.0062 29.0005 33.9482 29.5142C33.8364 30.4899 34.6836 31.4221 35.8301 31.5671C36.3625 31.6344 36.8959 31.6841 37.4283 31.7462C37.5774 31.8695 37.7473 31.9741 37.9078 32.0839C38.3159 32.3646 38.7478 32.6173 39.2191 32.8068C39.8674 33.0689 40.5665 33.2398 41.2905 33.3019C44.204 33.5547 47.1165 33.6789 50.0259 33.6789V33.6779L50.0269 32.4744Z" fill="#F3B70E"/><path d="M50.0259 27.5526V11.333C47.3019 11.478 45.3651 12.0269 44.0394 12.5966C42.724 13.1755 42.0301 13.767 41.7815 14.0156C41.7401 14.087 41.9783 14.5748 42.1543 14.927C41.7711 15.1642 41.2947 15.5059 40.984 15.7348C37.2346 18.3853 34.9457 22.5914 35.0078 27.1797C35.0078 27.334 35.0078 27.5008 35.0181 27.6561V27.7597C35.0181 27.7597 35.0181 27.7597 35.0181 27.7711C35.2874 27.8115 35.5567 27.8426 35.826 27.8747C36.2403 27.9265 36.6442 27.9679 37.0482 28.0197C37.1414 28.0311 37.2346 28.0414 37.3278 28.0508C37.3796 28.0611 37.4418 28.0611 37.4935 28.0715C37.8457 28.1129 38.1978 28.1657 38.5396 28.2072C38.55 28.2072 38.55 28.2072 38.5604 28.2072C38.8504 28.2372 39.1404 28.2693 39.4304 28.29C39.9586 28.3521 40.4868 28.3936 41.015 28.435C41.4708 28.4764 41.9265 28.5282 42.3926 28.5593C43.2833 28.6214 44.1844 28.6629 45.0751 28.7043C45.4583 28.725 45.8312 28.7561 46.2144 28.7664C47.4884 28.8182 48.752 28.8379 50.0259 28.8379H50.0363V27.5536H50.0259V27.5526ZM46.0798 25.6261C45.914 25.2947 45.7483 24.9529 45.5723 24.6111C45.334 24.1346 45.0855 23.6385 44.8369 23.1507C44.578 22.6442 44.3087 22.1263 44.0394 21.6188C43.8737 21.277 43.6872 20.9456 43.5112 20.6142C43.2419 20.1067 42.9622 19.5992 42.6826 19.102C42.4547 18.697 42.2268 18.2941 41.9886 17.9006C41.7608 17.507 41.5226 17.1134 41.2843 16.7405C41.1911 16.5955 41.1082 16.4298 41.015 16.2838C41.0772 16.2227 41.1393 16.1595 41.2118 16.1077C41.305 16.0363 41.419 15.9317 41.5433 15.8281L41.5536 15.8177C41.8022 15.6106 42.0818 15.3713 42.289 15.2056C42.3408 15.3102 42.3822 15.4438 42.434 15.5588C42.4858 15.682 42.5376 15.7867 42.5894 15.9213C42.7654 16.3356 42.9622 16.812 43.1797 17.3506C43.304 17.682 43.4387 18.0238 43.594 18.3656C43.6251 18.4485 43.6665 18.5417 43.6976 18.6349C43.8219 18.9456 43.9565 19.277 44.0808 19.6188C44.143 19.7835 44.2155 19.9606 44.2776 20.1253C44.3397 20.2807 44.4019 20.4474 44.464 20.6132C44.5262 20.7789 44.5883 20.9342 44.6401 21.0782C44.7022 21.2243 44.754 21.3682 44.8058 21.5142C45.044 22.145 45.2719 22.7871 45.4998 23.45L45.9037 24.6318C46.0176 24.9943 46.1316 25.3454 46.2455 25.6986C46.318 25.9161 46.3801 26.144 46.4526 26.3615C46.3283 26.1232 46.2144 25.8747 46.0798 25.6261Z" fill="#F7DC54"/><path d="M41.2885 16.7385C42.8286 19.1776 44.2569 22.001 45.5702 24.6131C45.8685 25.2066 46.1688 25.8053 46.4547 26.3656V26.3635C46.2786 25.7866 46.0922 25.2087 45.9027 24.6338C45.5484 23.5681 45.1766 22.521 44.8069 21.5184C43.969 19.248 43.1507 17.2429 42.5914 15.9213C42.5334 15.7835 42.4878 15.6789 42.4371 15.5588C42.3853 15.4366 42.3263 15.2988 42.2807 15.1911L42.2797 15.1921C42.2403 15.219 42.2041 15.2501 42.1657 15.276C41.9576 15.449 41.7566 15.6344 41.5515 15.8156C41.3724 15.972 41.1849 16.1181 41.014 16.2858C41.1072 16.4288 41.1953 16.5924 41.2885 16.7385Z" fill="#F3B70E"/><path d="M50.0363 31.1621C50.0394 31.1621 50.0414 31.1631 50.0445 31.1631C51.6075 31.1631 53.1714 31.1352 54.7354 31.0875C56.4443 31.0337 58.1533 30.956 59.8612 30.8452C60.1875 30.8245 60.5044 30.783 60.8151 30.7375C60.8452 30.7333 60.8783 30.7312 60.9073 30.7271C61.5029 30.6308 62.0466 30.4837 62.5417 30.3066C62.9581 30.1585 63.3465 29.9928 63.6592 29.7991C63.5981 29.8757 63.5381 29.9524 63.4759 30.03C63.2626 30.2952 62.986 30.5345 62.6774 30.7561C62.5997 30.812 62.5065 30.8555 62.4236 30.9084C62.2341 31.0285 62.0539 31.1548 61.8405 31.2574C61.5225 31.4096 61.1724 31.5308 60.8141 31.6365C60.3573 31.7711 59.8788 31.8747 59.3786 31.9213C56.2672 32.2103 53.1538 32.3542 50.0445 32.3542C50.0414 32.3542 50.0394 32.3542 50.0363 32.3542V31.1621Z" fill="#ECBB1A"/><path d="M62.7437 28.0539C62.8348 28.0425 62.927 28.0311 63.0192 28.0197C62.928 28.0311 62.8358 28.0435 62.7437 28.0549V28.0539Z" fill="#F9CB31"/><path d="M54.1699 24.6339C53.9793 25.2087 53.7939 25.7866 53.6178 26.3635L53.6168 26.3656C53.7929 25.7887 53.9783 25.2097 54.1699 24.6339Z" fill="#E8BB95"/><path d="M61.508 28.2061C61.9192 28.1616 62.3314 28.1025 62.7436 28.0539V28.0549C62.3314 28.1046 61.9192 28.1616 61.508 28.2061Z" fill="#3D3B36"/><path d="M54.1688 24.6339C54.522 23.5681 54.8949 22.522 55.2646 21.5184C54.8949 22.521 54.523 23.5681 54.1688 24.6339Z" fill="#3D3B36"/><path d="M50.0363 11.335H50.0383L50.0445 11.336V27.5525H50.0435L50.0363 27.5535V11.335Z" fill="#ECBB1A"/><path d="M50.0445 32.4744V32.3521C53.1538 32.3521 56.2672 32.2082 59.3786 31.9192C59.8788 31.8736 60.3563 31.769 60.813 31.6344C61.1724 31.5277 61.5225 31.4065 61.8405 31.2553C62.0528 31.1528 62.233 31.0264 62.4236 30.9063C62.5065 30.8534 62.5997 30.8099 62.6774 30.754C62.986 30.5324 63.2625 30.2931 63.4759 30.028C63.5381 29.9513 63.5981 29.8747 63.6592 29.797C63.3464 29.9917 62.9581 30.1564 62.5417 30.3045C62.0456 30.4816 61.5028 30.6297 60.9073 30.725C60.8783 30.7292 60.8451 30.7312 60.8151 30.7354C60.5044 30.782 60.1885 30.8234 59.8612 30.8431C58.1543 30.9539 56.4443 31.0326 54.7354 31.0854C53.1714 31.1331 51.6074 31.1611 50.0445 31.1611V30.5748V29.8571V29.333V28.8379C51.3154 28.8379 52.5883 28.813 53.8612 28.7664C54.2403 28.7519 54.6183 28.7229 54.9974 28.7043C55.8923 28.6618 56.7872 28.6204 57.682 28.5541C58.1409 28.521 58.6007 28.4702 59.0606 28.4309C59.5878 28.3853 60.116 28.3428 60.6432 28.289C60.9311 28.261 61.2191 28.2361 61.508 28.204C61.9192 28.1595 62.3314 28.1015 62.7436 28.0528C62.8348 28.0414 62.927 28.029 63.0192 28.0176C63.6965 27.9347 64.3729 27.8612 65.0502 27.7659C65.0502 27.7628 65.0513 27.7597 65.0513 27.7576C65.2222 27.7328 65.3941 27.7162 65.566 27.6913C65.7152 27.798 65.8001 27.8602 65.9482 27.9669C66.0083 28.4847 66.0663 29.0005 66.1243 29.5142C66.2361 30.4899 65.3889 31.4221 64.2424 31.5671C63.71 31.6344 63.1766 31.6841 62.6442 31.7462C62.4951 31.8695 62.3252 31.9741 62.1647 32.0839C61.7566 32.3646 61.3247 32.6173 60.8534 32.8068C60.204 33.0689 59.5049 33.2398 58.7809 33.3019C55.8684 33.5547 52.956 33.6789 50.0456 33.6789V33.6779V32.4744H50.0445Z" fill="#F2B100"/><path d="M56.0849 19.3599C56.0746 19.3806 56.0746 19.39 56.0642 19.4117C56.0746 19.4221 56.0746 19.4221 56.0746 19.4221C56.0746 19.4014 56.0849 19.3806 56.0953 19.3609H56.0849V19.3599ZM56.0849 19.3599C56.0746 19.3806 56.0746 19.39 56.0642 19.4117C56.0746 19.4221 56.0746 19.4221 56.0746 19.4221C56.0746 19.4014 56.0849 19.3806 56.0953 19.3609H56.0849V19.3599ZM59.0886 15.7348C58.7778 15.5059 58.3014 15.1642 57.9182 14.927C58.0943 14.5748 58.3325 14.087 58.291 14.0156C58.0425 13.767 57.3485 13.1755 56.0331 12.5966C54.7074 12.0269 52.7706 11.478 50.0466 11.333V27.5515H50.0363V28.8358H50.0466C51.3102 28.8358 52.5842 28.8151 53.8581 28.7644C54.2413 28.753 54.6142 28.7229 54.9974 28.7022C55.8881 28.6608 56.7892 28.6194 57.68 28.5572C58.146 28.5261 58.6018 28.4744 59.0575 28.4329C59.5857 28.3915 60.1139 28.3501 60.6422 28.2879H60.6525C60.9425 28.2662 61.2222 28.2351 61.5122 28.2051C61.6261 28.1937 61.7297 28.1843 61.8436 28.1636C62.144 28.1326 62.4443 28.0911 62.7447 28.0497C62.8379 28.0394 62.9311 28.029 63.014 28.0186C63.159 27.9979 63.3143 27.9886 63.4593 27.9669C63.9979 27.9058 64.5158 27.8426 65.0544 27.7711C65.0544 27.7597 65.0544 27.7597 65.0544 27.7597V27.6561C65.0647 27.5008 65.0544 27.3351 65.0647 27.1797C65.1269 22.5914 62.8379 18.3863 59.0886 15.7348ZM56.4681 18.4174C56.4681 18.4071 56.4785 18.3863 56.4785 18.3656C56.8617 17.4127 57.2035 16.5831 57.4832 15.9213C57.535 15.7867 57.5867 15.6831 57.6385 15.5588C57.6903 15.4449 57.7317 15.3102 57.7835 15.2056C57.9907 15.3713 58.2703 15.6106 58.5189 15.8177C58.695 15.972 58.8918 16.1181 59.0575 16.2828C58.9643 16.4288 58.8814 16.5945 58.7882 16.7395C58.3739 17.392 57.97 18.0653 57.5764 18.7592C57.4625 18.9663 57.3485 19.1631 57.2346 19.3703C57.1828 19.4635 57.131 19.5567 57.0792 19.6499C56.7167 20.3025 56.3749 20.956 56.0331 21.6178C55.7224 22.2082 55.4221 22.7986 55.1217 23.3889C54.9146 23.8032 54.7074 24.2071 54.5003 24.6111C54.407 24.8079 54.3035 25.0047 54.2103 25.1921C54.0031 25.5961 53.8063 25.9896 53.6199 26.3625C53.7338 25.9896 53.8478 25.6168 53.972 25.2439C54.0342 25.0368 54.1067 24.84 54.1688 24.6328C54.521 23.566 54.8938 22.52 55.2667 21.5153C55.3185 21.3693 55.3703 21.2253 55.4324 21.0792C55.4842 20.9342 55.5464 20.7799 55.6085 20.6142C55.6706 20.4485 55.7328 20.2828 55.7949 20.1264C55.8571 19.9617 55.9296 19.7846 55.9917 19.6199C56.0228 19.5567 56.0435 19.4853 56.0746 19.4221C56.0746 19.4014 56.0849 19.3806 56.0953 19.3609C56.1264 19.2781 56.1678 19.1849 56.1885 19.102C56.2817 18.8638 56.3749 18.6359 56.4578 18.4184L56.4681 18.4174ZM56.0849 19.3599C56.0746 19.3806 56.0746 19.39 56.0642 19.4117C56.0746 19.4221 56.0746 19.4221 56.0746 19.4221C56.0746 19.4014 56.0849 19.3806 56.0953 19.3609H56.0849V19.3599ZM56.0849 19.3599C56.0746 19.3806 56.0746 19.39 56.0642 19.4117C56.0746 19.4221 56.0746 19.4221 56.0746 19.4221C56.0746 19.4014 56.0849 19.3806 56.0953 19.3609H56.0849V19.3599Z" fill="#ECBB1A"/><path d="M58.783 16.7385C57.2418 19.1776 55.8146 22.001 54.5013 24.6131C54.203 25.2066 53.9027 25.8053 53.6168 26.3656V26.3635C53.7929 25.7866 53.9793 25.2087 54.1688 24.6338C54.522 23.5681 54.8949 22.521 55.2646 21.5184C56.1026 19.248 56.9208 17.2429 57.4801 15.9213C57.5381 15.7835 57.5836 15.6789 57.6344 15.5588C57.6862 15.4366 57.7452 15.2988 57.7908 15.1911L57.7918 15.1921C57.8301 15.219 57.8664 15.2501 57.9058 15.276C58.1139 15.449 58.3149 15.6344 58.5199 15.8156C58.6991 15.972 58.8866 16.1181 59.0575 16.2858C58.9643 16.4288 58.8762 16.5924 58.783 16.7385Z" fill="#F2B100"/><path d="M49.9948 84.7561V100.002C49.7566 100.002 49.508 100.002 49.2698 99.9917C33.9513 99.7742 20.3004 92.6691 11.2688 81.6292C12.8534 74.2434 14.956 64.985 14.956 64.985C14.956 64.985 29.4148 59.0078 36.406 56.1181C37.6178 55.6209 38.6018 55.218 39.2439 54.9477C39.4303 54.8648 39.5857 54.8027 39.7203 54.7519C39.8032 54.7105 39.8861 54.6794 39.9379 54.6587C40.0207 54.6277 40.0725 54.6059 40.0932 54.5966C40.3004 54.5241 40.4143 54.4723 40.4143 54.4723L41.1186 57.4034V57.4138L42.2993 62.2713L42.3097 62.3128L43.0036 65.2025L43.3868 66.7872L43.449 67.0565C43.449 67.0565 44.7333 70.5158 46.204 74.5023V74.5137C47.5091 78.0445 48.9591 81.9596 49.8291 84.3004L49.9948 84.7561Z" fill="#2C5263"/><path d="M50.001 58.7198C48.1108 58.8089 45.6354 62.5489 44.3594 63.7349C42.1802 65.7576 41.1455 67.9523 40.4205 70.4826C41.6768 71.9979 42.8079 73.5629 43.8208 75.4894C44.9777 77.6914 45.7255 79.9109 46.4702 82.261C46.8514 83.4645 47.1869 85.3226 48.61 85.4749C49.0948 85.5277 49.5608 85.3278 50.0021 84.9943L50.001 58.7198Z" fill="#CAD9E0"/><path d="M50.001 58.7198C51.8912 58.8089 54.3666 62.5489 55.6427 63.7349C57.8208 65.7576 58.8555 67.9523 59.5816 70.4826C58.3252 71.9979 57.1942 73.5629 56.1823 75.4894C55.0243 77.6914 54.2776 79.9109 53.5329 82.261C53.1517 83.4645 52.8162 85.3226 51.3931 85.4749C50.9094 85.5277 50.4423 85.3278 50.001 84.9943V58.7198Z" fill="#CAD9E0"/><path d="M51.8643 65.2118L53.799 62.2196C53.8415 62.1129 51.7493 59.101 50.2299 58.2403C49.9834 58.3376 49.7307 58.4101 49.4542 58.4236C49.2584 58.4329 49.1279 58.3449 49.0482 58.2216C48.9684 58.3128 48.8969 58.4288 48.8431 58.5852C48.6846 59.0378 46.6245 61.4169 46.173 61.8664C46.059 61.9793 46.3563 62.5924 46.4153 62.7426L47.7286 65.2128C47.9689 65.6634 48.0404 66.1843 47.9296 66.6836L45.479 77.8073C46.5406 78.3117 47.7514 92.492 48.8845 92.7695C51.5391 93.421 52.9674 78.5261 53.797 76.376L51.6613 66.6836C51.5525 66.1833 51.6251 65.6623 51.8643 65.2118Z" fill="#21414F"/><path d="M49.9213 58.2952C49.8467 58.2962 41.0088 50.2382 41.0088 50.2382L38.6691 56.5065L41.6396 69.0565L49.9213 58.2952Z" fill="#E4F4FF"/><path d="M50.001 58.3273C50.0756 58.3283 58.7882 50.2382 58.7882 50.2382L61.1279 56.5065L58.1574 69.0565L50.001 58.3273Z" fill="#E4F4FF"/><path d="M50.0052 84.7975V100.002H49.9948C49.7566 100.002 49.508 100.002 49.2698 99.9917C47.9544 96.1077 45.479 88.8162 43.7804 84.1554C40.8804 76.1802 36.9342 70.1419 33.8167 66.1025C35.4324 65.3154 37.0585 64.5179 38.6743 63.7307L33.3195 61.4718C33.6302 60.6132 33.7027 58.4278 35.1113 57.2253C35.5878 56.811 36.0228 56.4485 36.406 56.117C37.9596 54.812 38.84 54.1284 39.4303 53.9006L39.5235 54.1906L39.7203 54.7499L39.8343 55.0606V55.0709L40.3521 56.5935L42.2993 62.2693L42.3097 62.3107L43.2108 64.9415L43.6976 66.3708L46.318 74.0145L49.8291 84.2993L49.9948 84.755V84.7654L50.0052 84.7975Z" fill="#25485B"/><path d="M88.7209 81.5971C85.6137 85.4293 81.9265 88.7954 77.8042 91.5609H77.7939C77.535 91.7369 77.2657 91.913 77.0067 92.0673C75.2667 93.1973 73.4542 94.2113 71.5691 95.103C68.928 96.3873 66.1522 97.4231 63.2729 98.2102C61.0357 98.8317 58.7364 99.2978 56.3956 99.5878C56.2092 99.6178 56.0228 99.6396 55.8363 99.6592C54.1585 99.8571 52.4599 99.971 50.7405 99.9907C50.492 100.001 50.2538 100.001 50.0052 100.001H49.9948V84.755C49.9948 84.7447 50.0052 84.7343 50.0052 84.724C50.0777 84.5479 50.1398 84.3615 50.2123 84.1647L50.2641 84.03C51.0823 81.8343 52.3459 78.406 53.537 75.1952C55.1217 70.9291 56.5614 67.0554 56.5614 67.0554L56.5821 66.9829L57.131 65.3465L60.5593 54.9788L60.725 54.4713L62.32 55.1652C62.32 55.1652 62.3304 55.1766 62.3511 55.1869L85.044 64.985C85.044 64.985 87.1362 74.2227 88.7209 81.5971Z" fill="#25485B"/><path d="M61.3257 63.7307C62.9518 64.5179 64.5676 65.3154 66.1833 66.1025C63.0658 70.1408 59.1196 76.1792 56.2196 84.1554C54.5313 88.8162 52.0559 96.1077 50.7405 99.9917C50.492 100.002 50.2538 100.002 50.0052 100.002V84.7975L50.2123 84.1657L50.2641 84.031L53.4024 74.5852V74.5748L56.116 66.3718L56.6546 64.7768V64.7664L59.3268 56.7084L59.8757 55.0513L60.2071 54.0456V54.0352L60.2589 53.9006C60.6836 54.0663 61.3672 54.4598 62.32 55.1641C62.32 55.1641 62.3304 55.1756 62.3511 55.1859C63.0451 55.6934 63.8944 56.3667 64.8887 57.2263C66.2973 58.4278 66.3698 60.6142 66.6805 61.4728L61.3257 63.7307Z" fill="#2C5263"/><path d="M63.884 34.0673L63.4904 33.1041C63.4904 33.1041 63.3661 33.1041 63.1383 33.1145C63.0658 33.1041 62.9933 33.1145 62.9 33.1145C62.6308 33.1145 62.2786 33.1144 61.8747 33.1258C61.6364 33.1258 61.3879 33.1362 61.1186 33.1362H61.0254C60.6111 33.1362 60.1657 33.1466 59.7203 33.1569C59.71 33.1569 59.71 33.1569 59.6996 33.1569C58.7364 33.1683 57.7835 33.188 57.0689 33.2097C56.2506 33.2398 55.3392 33.3641 54.521 33.5816C54.5106 33.5919 54.5106 33.5919 54.5003 33.5919C54.4899 33.5919 54.4899 33.5919 54.4795 33.5919C53.2574 33.9037 52.1595 34.4319 51.5691 35.1766L51.5381 35.1248C50.958 35.4355 50.4609 35.5495 50.057 35.5598C49.6427 35.5805 49.1455 35.4873 48.5448 35.2284L48.5137 35.2812C47.4366 34.0797 44.9508 33.6033 42.9001 33.6644C41.9783 33.7058 40.4557 33.8622 39.0575 34.0269C38.8503 34.0487 38.6432 34.0798 38.4464 34.0994C38.2289 34.1305 38.0114 34.1512 37.8043 34.1823C37.5867 34.2133 37.3796 34.2341 37.1828 34.2652C36.6649 34.3273 36.2403 34.3894 35.9814 34.4205C35.7949 34.4505 35.6913 34.4619 35.6913 34.4619L35.391 35.798L36.261 36.233H36.2714L37.5246 36.8638C37.5142 37.0399 37.5142 37.2273 37.5349 37.4034C37.6178 38.1585 37.8975 38.7913 38.3117 39.3289C38.3221 39.3289 38.3221 39.3402 38.3221 39.3402V39.3506C38.8296 40.0135 39.5443 40.5106 40.3625 40.841C41.2325 41.2046 42.2165 41.3703 43.1797 41.3382C43.2522 41.3382 43.3247 41.3382 43.3868 41.3278C43.8736 41.2967 44.3397 41.2232 44.7954 41.0896C46.7219 40.5406 48.2237 39.1642 48.9177 37.2988C49.0212 37.0399 49.0627 36.7923 49.0523 36.5437C49.4355 36.6266 49.7773 36.668 50.088 36.6567C50.3988 36.6463 50.7405 36.5852 51.1134 36.4806C51.1238 36.7188 51.1859 36.9777 51.2998 37.2273C52.1077 39.0399 53.6924 40.3232 55.6499 40.7478C56.116 40.841 56.5924 40.8938 57.0689 40.8938H57.2864C57.9078 40.8731 58.5293 40.7695 59.1196 40.5935C59.9689 40.3345 60.7561 39.9202 61.3775 39.3402C62.1232 38.6463 62.61 37.7235 62.6722 36.6049C62.6825 36.4184 62.6618 36.2424 62.6411 36.0663L63.6872 34.3884L63.884 34.0673ZM47.8509 36.9467C47.2812 38.4692 46.0487 39.6085 44.4744 40.0539C44.1015 40.1585 43.7183 40.2196 43.3143 40.2506L43.1486 40.261C42.0197 40.2921 40.8389 40.0124 39.9793 39.4013C39.2957 38.9353 38.8089 38.262 38.6846 37.4024C38.6743 37.361 38.6639 37.3299 38.6639 37.2885C38.6432 37.0513 38.6536 36.8224 38.7261 36.6152C38.7882 36.3977 38.9021 36.1916 39.0782 36.0041C39.1507 35.9213 39.2439 35.8384 39.3371 35.7669C40.0829 35.1662 41.3879 34.7934 42.9311 34.7519C45.0751 34.6805 47.0844 35.2398 47.7266 36.0684C47.9337 36.3356 47.9648 36.6152 47.8509 36.9467ZM59.6375 39.2149H59.6271C58.9125 39.5774 58.0735 39.7846 57.2449 39.8042H57.0792C56.6753 39.8042 56.2921 39.7628 55.9089 39.6913C54.3138 39.3392 53.0088 38.2921 52.3459 36.8017C52.2009 36.4796 52.2216 36.2009 52.4081 35.9202C52.9984 35.0502 54.9663 34.3666 57.1103 34.2952C58.4878 34.2538 59.6789 34.4713 60.4764 34.9063C60.6939 35.0202 60.8804 35.1548 61.0357 35.2998C61.0772 35.3413 61.1082 35.3723 61.1393 35.4138C61.4293 35.7338 61.5536 36.1077 61.5329 36.5531C61.5122 37.0295 61.3775 37.4542 61.16 37.827C60.8286 38.4174 60.2797 38.8835 59.6375 39.2149Z" fill="#373434"/></svg>