<svg width="100" height="100" viewBox="0 0 100 100" fill="none" xmlns="http://www.w3.org/2000/svg"><path d="M100 50.0052C100 50.3159 100 50.637 99.9793 50.9373C99.9689 51.6209 99.9379 52.3045 99.8964 52.9881C99.7307 55.8364 99.3268 58.6225 98.695 61.3257C98.5085 62.1543 98.291 62.9726 98.0528 63.7804C96.4371 69.4459 93.8477 74.6971 90.4609 79.3371C88.1926 82.4754 85.5722 85.334 82.6411 87.8612C80.5697 89.653 78.3532 91.2791 76.0021 92.7188C75.7224 92.8845 75.4428 93.0502 75.1631 93.2056C74.0031 93.8892 72.812 94.521 71.6002 95.101C71.3206 95.2356 71.0409 95.3599 70.7613 95.4842C70.7198 95.5153 70.6784 95.5256 70.637 95.5463C69.363 96.1264 68.058 96.6546 66.7323 97.1207C66.1315 97.3382 65.5204 97.5453 64.899 97.7421H64.8887C60.6525 99.0678 56.1781 99.8343 51.5381 99.9689C51.0306 99.9896 50.5127 100 49.9948 100H49.4977C49.1973 100 48.8866 99.9896 48.5862 99.9793C47.333 99.9482 46.0798 99.8654 44.8576 99.7411C42.2993 99.4821 39.7929 99.0264 37.3589 98.3843C34.0135 97.5142 30.813 96.3024 27.7784 94.7903C27.2605 94.5417 26.753 94.2724 26.2455 93.9824C21.0668 91.1963 16.4371 87.5091 12.5738 83.1383C4.74366 74.3138 0 62.7136 0 50.0052C0 22.3822 22.3925 0 49.9948 0C77.0171 0 99.0471 21.4397 99.9689 48.2548C99.9896 48.8348 100 49.4148 100 50.0052Z" fill="#5ABAD3"/><path d="M61.8757 48.1139C61.4956 47.9233 61.2336 47.5494 61.0937 47.1476C60.3915 45.1434 60.2268 38.7654 60.7747 36.6711L40.0943 37.1403C40.0829 38.84 41.0502 43.2056 40.6308 45.8353C40.4164 47.1838 40.1968 48.4174 38.7395 49.1641C38.8545 49.7576 39.1414 50.2817 39.2657 50.8876C39.3951 51.5194 39.5484 52.1481 39.7628 52.7581C40.1999 54 40.8959 55.1124 41.8467 56.0269C44.0932 58.1874 47.0161 58.9736 49.8457 59.0036C53.6458 59.045 57.1445 57.4604 59.7111 54.5966C60.1191 53.4956 60.636 52.4319 60.9363 51.2905C61.0668 50.7933 61.0181 50.2113 61.1911 49.7431C61.3517 49.3102 61.738 48.8741 62.0404 48.5334C62.0798 48.4889 62.1212 48.4412 62.1285 48.3822C62.145 48.2517 61.9928 48.174 61.8757 48.1139Z" fill="#E2A77D"/><path d="M51.5381 54.5417V99.9689C51.0306 99.9896 50.5127 100 49.9948 100H49.4977C49.1973 100 48.8866 99.9896 48.5862 99.9793C47.333 99.9482 46.0798 99.8653 44.8576 99.741C42.2993 99.4821 39.7929 99.0264 37.3589 98.3842C34.0135 97.5142 30.8131 96.3024 27.7784 94.7902C27.2605 94.5417 26.753 94.2724 26.2455 93.9824C21.0668 91.1963 16.4371 87.509 12.5738 83.1383C14.521 71.8798 16.6235 59.9275 16.9032 59.3889C17.4003 58.4464 17.9182 58.2082 18.5811 57.3796C20.2279 55.3185 28.5759 52.4702 34.0031 50.5748C34.2414 50.492 34.4796 50.4091 34.6971 50.3262C35.2253 50.1398 35.7224 49.9637 36.1678 49.798C36.4682 49.6944 36.7375 49.5909 36.9964 49.4977C37.3796 49.363 37.7111 49.2284 37.9803 49.1144C38.2082 49.0212 38.4568 49.0419 38.7364 49.1559H38.7468C38.9332 49.2284 39.1196 49.3423 39.3164 49.4769C40.3936 50.2227 41.6158 51.7452 42.4651 52.2527C44.6505 53.5577 46.4941 54.6038 49.1248 54.6038C49.5702 54.6038 50.0156 54.6038 50.4609 54.5831H50.6784C50.7199 54.5831 50.7716 54.5831 50.8234 54.5727C50.8856 54.5727 50.9581 54.5727 51.0202 54.5624C51.1963 54.5624 51.362 54.552 51.5381 54.5417Z" fill="#E6E7E8"/><path d="M90.4609 79.3371C88.1927 82.4754 85.5723 85.334 82.6411 87.8612C80.5697 89.653 78.3532 91.2791 76.0021 92.7188C75.7224 92.8845 75.4428 93.0502 75.1631 93.2056C74.0031 93.8892 72.812 94.521 71.6002 95.101C71.3206 95.2356 71.0409 95.3599 70.7613 95.4842V95.5463H70.637C69.363 96.1263 68.058 96.6546 66.7323 97.1206C66.1316 97.3381 65.5205 97.5453 64.899 97.7421H64.8887C60.6525 99.0678 56.1782 99.8343 51.5381 99.9689V54.5417C51.652 54.5313 51.7556 54.5313 51.8695 54.5209C51.942 54.5106 52.0042 54.5106 52.0767 54.5002C52.2527 54.4899 52.4392 54.4692 52.6152 54.4485C52.7913 54.4277 52.9674 54.407 53.1435 54.3759C53.3195 54.3552 53.4956 54.3242 53.6717 54.2931C53.8581 54.262 54.0238 54.231 54.1999 54.1895C54.3553 54.1584 54.5106 54.1274 54.6556 54.0859C55.0285 53.9927 55.391 53.8891 55.7535 53.7545C57.0585 53.2884 58.1875 52.5013 59.0989 51.4863C59.9586 50.5334 61.1186 49.1248 61.4604 47.8819C61.4604 47.8819 61.4915 47.8819 61.564 47.8923H61.5743C61.595 47.9026 61.6261 47.9026 61.6572 47.913H61.6675C61.7608 47.9233 61.8954 47.9544 62.0611 47.9958C62.3097 48.0476 62.6411 48.1201 63.0244 48.2133C63.1797 48.2444 63.3351 48.2858 63.5008 48.3273C63.594 48.348 63.6976 48.379 63.8115 48.3998C63.9151 48.4308 64.0187 48.4619 64.1326 48.4826C64.174 48.493 64.2154 48.5033 64.2569 48.5137C64.4744 48.5758 64.7126 48.638 64.9715 48.7001C65.1165 48.7416 65.2615 48.7726 65.4169 48.8141C65.8001 48.9176 66.2041 49.0316 66.6287 49.1455C71.0409 50.4194 77.9596 52.8431 81.1186 54.1999C82.1958 54.666 83.1072 55.4531 83.6976 56.4681C86.6701 61.6261 88.897 70.6473 90.4609 79.3371Z" fill="#D6D7D8"/><path d="M64.9746 48.6991C62.8856 48.1657 61.4676 47.8467 61.4573 47.8788C61.1165 49.1258 59.9544 50.5334 59.102 51.4811C58.1854 52.5044 57.0554 53.2936 55.7556 53.7514C54.4019 54.2423 52.9736 54.4443 51.535 54.5406C51.1766 54.5634 50.8213 54.5769 50.4661 54.5862V74.2092C50.8224 74.5883 51.1611 74.9601 51.535 75.3454C59.0161 66.0932 63.8664 61.5639 64.9746 48.6991Z" fill="#CCCDCE"/><path d="M49.1259 54.6038C46.493 54.6038 44.6494 53.5598 42.4651 52.2486C41.2284 51.5018 39.1818 48.6028 37.9772 49.1155C37.711 49.2325 37.3807 49.3599 36.9964 49.4987C37.1828 53.9596 39.3962 62.4516 50.4651 74.2092V54.5862C50.0176 54.5986 49.5712 54.6038 49.1259 54.6038Z" fill="#D6D7D8"/><path d="M49.1528 60.812C49.4034 61.2822 49.478 61.827 49.363 62.348L46.8027 73.9689C47.912 74.4961 49.0409 74.9777 50.2258 75.2677C52.9995 75.9482 54.6266 74.7209 55.4935 72.4744L53.2626 62.348C53.1476 61.827 53.2222 61.2822 53.4728 60.812L54.8452 58.231C54.9073 58.0756 54.87 57.8974 54.752 57.7794C54.2237 57.2543 53.6945 56.7291 53.1673 56.204C52.8079 55.8477 52.3749 55.5132 52.1668 55.045C52.0176 54.7105 51.6075 53.9596 51.131 54.2786C50.7147 54.5572 50.5749 54.9953 50.3045 55.3651C50.0352 55.7338 49.6137 56.0518 49.2905 56.3739C48.8182 56.8431 48.347 57.3123 47.8747 57.7804C47.7556 57.8985 47.7193 58.0766 47.7815 58.232L49.1528 60.812Z" fill="#6A828C"/><path d="M39.1642 38.7322C39.2584 39.4925 39.6054 40.1937 40.1429 40.7084L44.8348 45.2035C43.7835 40.2289 41.188 36.1688 38.3149 31.8871L39.1642 38.7322Z" fill="#F0B784"/><path d="M61.884 33.944L62.695 27.0378C62.6867 24.2796 62.7727 21.507 62.6639 18.753C62.5987 17.1279 62.1139 16.1957 60.6794 15.2967C58.9259 14.1978 57.5847 14.7602 56.0321 15.3299C55.5194 15.5184 54.985 15.7069 54.4039 15.8374C52.7447 16.2102 50.9125 16.5427 49.3226 15.7773C46.7126 14.521 44.1885 12.4754 41.0678 12.6556C40.5127 12.6867 39.9544 12.8027 39.4697 13.0616C38.4423 13.6106 37.883 14.7177 37.5816 15.8022C36.8358 18.4847 37.9586 20.7405 37.6758 23.5049C37.6965 24.7509 37.7172 25.9896 37.738 27.2356L38.3159 31.8892C41.189 36.1709 43.7846 40.2309 44.8358 45.2056L45.9575 46.2807C46.4847 46.7861 47.1725 47.0626 47.883 47.0575L50.2797 47.0388L52.6836 47.0202C53.391 47.015 54.0704 46.7302 54.5904 46.2206L56.2579 44.5862C56.3314 40.0714 57.8436 35.5681 61.884 33.944Z" fill="#FFC28E"/><path d="M61.884 33.9441C57.8446 35.5671 56.3325 40.0715 56.2579 44.5831L60.6691 40.261C61.014 39.9233 61.2346 39.4676 61.2936 38.9736L61.884 33.9441Z" fill="#F0B784"/><path d="M39.2605 27.1652C39.0813 25.9358 38.9456 24.9591 38.8659 24.6867C38.7892 24.4236 38.6629 24.1191 38.3832 24.059C38.233 24.0259 38.0653 24.2123 37.9348 24.1315C36.9301 23.509 36.3056 24.2247 35.9897 25.219C35.6209 26.3832 35.7297 27.1434 36.2445 28.1823C36.8421 29.3868 37.2201 30.7126 37.7224 31.9637C37.8509 32.2859 38.3988 34.117 38.8514 34.1139C38.8576 34.1139 41.0409 34.0963 41.0409 34.0963C40.3118 34.1025 39.6706 29.9772 39.2605 27.1652Z" fill="#FFC28E"/><path d="M61.1663 26.9943C61.2885 26.117 61.4718 25.2543 61.9275 24.2838C62.144 23.8218 62.6215 23.2822 63.0875 23.5204C63.7162 23.8426 64.1668 24.6349 64.4329 25.2895C64.8421 26.2973 64.4423 26.8224 64.0497 27.7877C63.7949 28.4132 62.0166 33.9316 61.624 33.9337L59.4345 33.9513C59.9068 32.4454 60.5904 30.8897 60.8576 29.3413C61.0026 28.4982 61.0627 27.7411 61.1663 26.9943Z" fill="#FFC28E"/><path d="M38.7779 29.4438C38.5624 27.3371 38.4112 25.2128 38.0342 23.131C37.5319 20.3635 38.9819 17.4925 40.5168 15.1176C40.7675 14.7302 41.0668 14.3242 41.5225 14.1875C42.1388 14.0021 42.7696 14.3749 43.3009 14.7209C45.0834 15.883 49.1093 17.3661 49.1093 17.3661C49.1093 17.3661 53.3019 17.507 55.3143 17.045C56.6971 16.7281 58.5707 15.6696 59.9731 16.5251C61.1176 17.2222 61.4272 19.392 61.8954 20.6608L61.9762 31.1393L63.2719 26.9508C64.3035 23.2688 64.5655 14.7706 64.5655 14.7706C64.5655 14.7706 58.984 8.75918 55.7141 9.41273C56.8731 9.18072 58.9943 9.51837 60.1533 9.2874C55.7411 7.85291 52.1108 6.49404 48.4744 7.12791C44.8379 7.76178 41.45 9.4583 38.6173 11.7255C37.3558 12.7364 35.4407 15.2874 35.4407 15.2874C35.4407 15.2874 35.4697 24.405 38.7779 29.4438Z" fill="#393B42"/><path d="M45.0513 38.3946C46.4744 38.7986 48.5521 39.1994 51.0544 39.043C52.9425 38.9249 54.5282 38.522 55.7193 38.116C55.3351 38.9404 54.9508 39.7638 54.5666 40.5893C53.9296 40.9995 52.1222 42.0363 49.7639 41.738C48.5614 41.5867 47.6303 41.1393 47.0378 40.7861C46.376 39.9886 45.7141 39.1921 45.0513 38.3946Z" fill="white"/><path d="M48.3491 34.2734L49.5899 35.6945C49.8457 35.8073 50.9083 36.2434 52.1533 35.7815C53.5671 35.2563 53.9524 34.3376 54.0466 34.1139L53.072 37.0119C51.4034 37.3413 51.0109 37.2812 48.9467 37.1258L48.3491 34.2734Z" fill="#E2A77D"/><path d="M70.7633 79.7804H58.0922V84.9373H70.7633V79.7804Z" fill="#E6E7E8"/><path d="M70.7613 86.0383H58.0943V95.5463H70.7613V86.0383Z" fill="#E6E7E8"/><path d="M66.1761 81.8871C66.1761 82.8534 65.3931 83.6365 64.4278 83.6365C63.4614 83.6365 62.6795 82.8534 62.6795 81.8871C62.6795 80.9218 63.4614 80.1388 64.4278 80.1388C65.3931 80.1388 66.1761 80.9218 66.1761 81.8871Z" fill="white"/><path d="M53.1611 86.7053C53.1611 87.6706 52.378 88.4536 51.4127 88.4536C50.4464 88.4536 49.6644 87.6706 49.6644 86.7053C49.6644 85.739 50.4474 84.957 51.4127 84.957C52.378 84.957 53.1611 85.739 53.1611 86.7053Z" fill="white"/><path d="M38.9229 50.6981C39.2429 49.7908 39.4884 48.9591 39.6789 48.2361C38.0497 48.9871 36.4029 49.6965 34.7136 50.2983C33.4252 52.0559 32.2279 54.3967 31.536 57.507C31.1901 64.4309 31.7711 64.7447 31.7711 64.7447L41.1828 63.1621C41.6903 63.1621 37.1901 69.624 37.1901 69.624C39.6468 70.927 50.4381 77.2781 51.9555 78.6121V73.9762C50.7696 72.7198 36.7116 57.6623 38.9229 50.6981Z" fill="white"/><path d="M60.5034 63.739C60.4526 63.6831 60.4381 63.6561 60.4475 63.6561C60.4713 63.6561 60.5956 63.7576 60.7986 63.9285C62.1326 64.4733 66.7768 64.1502 69.5049 63.624C69.4521 55.8291 68.3687 51.42 66.4619 48.9114C65.1 48.6753 61.6644 47.6913 61.5298 47.6758C61.8695 48.3356 62.3812 48.9363 62.9094 49.8581C62.9042 49.8954 62.9042 49.9316 62.9042 49.9637C62.8669 54.58 61.7224 59.1175 59.6406 63.2356C59.5163 63.4801 59.391 63.7203 59.2615 63.9606L52.0466 74.0694V78.6266C55.7048 73.5836 63.4811 69.7483 65.5805 68.2392C65.5805 68.2392 61.9575 64.9114 60.7986 63.9275C60.6639 63.8726 60.5624 63.8125 60.5034 63.739Z" fill="#F0F1F2"/><path d="M63.884 25.9865C63.8736 25.9762 63.7494 25.9244 63.5319 25.8519C63.3351 25.7794 63.0554 25.6965 62.6929 25.6137C62.4651 25.5515 62.2165 25.4894 61.9368 25.4376C61.8022 25.4065 61.6572 25.3858 61.5018 25.3547C59.3578 25.0026 55.9503 24.8887 52.0456 26.3283C51.4241 26.4112 50.8441 26.4423 50.5231 26.4526H50.492C50.1606 26.4423 49.6013 26.4112 49.0005 26.3283C44.8162 24.8887 41.1186 25.1372 39.0161 25.5101C38.7882 25.5515 38.5811 25.593 38.3946 25.6344C38.1253 25.6965 37.9078 25.7483 37.7214 25.8001C37.3693 25.9037 37.1725 25.9762 37.1621 25.9865L37.1517 25.9969C36.81 26.4423 37.1621 27.0637 37.1621 27.0741C37.1725 27.0948 37.4418 27.1569 37.4832 27.1776C37.5246 27.1983 37.566 27.2191 37.6178 27.2398C37.6593 27.2605 37.711 27.2812 37.7525 27.3123C37.97 27.4262 38.1978 27.5816 38.2911 27.7576C38.4153 28.0269 38.3739 28.4619 38.4257 28.7623C38.436 28.8141 38.4361 28.8555 38.4464 28.9073C38.5293 29.4148 38.6328 29.9223 38.7986 30.4091C39.0368 31.1031 39.4821 31.8695 40.1657 32.2838H40.1761C41.6158 33.1331 44.5469 32.957 46.0487 32.5842C47.6955 32.0767 49.1559 29.1041 49.3113 28.1616C49.4252 27.5816 50.0984 27.4573 50.492 27.4262H50.5231C50.9166 27.4469 51.6209 27.5712 51.7349 28.1616C51.8902 29.1041 53.3506 32.0767 55.0078 32.5842C56.1989 32.8845 58.3325 33.0502 59.8654 32.6774C60.2486 32.5842 60.5904 32.4495 60.8804 32.2838C61.3568 31.9938 61.7193 31.5277 61.9783 31.0409C62.0093 30.9788 62.0404 30.9166 62.0611 30.8545C62.0611 30.8441 62.0715 30.8338 62.0715 30.8234C62.144 30.6888 62.1958 30.5438 62.2475 30.4091C62.2786 30.3159 62.3097 30.233 62.3304 30.1398C62.4029 29.912 62.4547 29.6841 62.4961 29.4459C62.5065 29.4355 62.5065 29.4252 62.5065 29.4148C62.5479 29.1973 62.5893 28.9798 62.6204 28.7623C62.6722 28.4619 62.6308 28.0269 62.7551 27.7576C62.8276 27.623 62.9622 27.5091 63.1279 27.4055C63.2729 27.3123 63.4386 27.2294 63.5629 27.1776C63.6044 27.1569 63.8736 27.0948 63.884 27.0741C63.884 27.0637 64.2465 26.4319 63.884 25.9865ZM43.3972 31.9627C42.4443 31.8591 41.1911 31.6623 40.5593 30.9373C40.29 30.6266 40.145 30.2538 40.0311 29.8809C39.8343 29.2387 39.6582 28.2548 39.9379 27.5194C40.0207 27.2916 40.1554 27.0844 40.3418 26.9291C41.0875 26.2765 42.3718 26.2351 43.3351 26.2558C45.5308 26.318 47.6437 26.5769 47.8198 28.1305C47.768 29.0523 46.9394 32.3563 43.3972 31.9627ZM61.015 29.8809C60.9011 30.2538 60.7561 30.6266 60.4868 30.9373C60.4764 30.9477 60.4661 30.9684 60.4454 30.9788C59.8032 31.6727 58.581 31.8591 57.6489 31.9627C54.1067 32.3563 53.2781 29.0523 53.2263 28.1305C53.4024 26.5769 55.5153 26.318 57.711 26.2558C58.6743 26.2351 59.9586 26.2765 60.7043 26.9291C60.8907 27.0844 61.0254 27.2708 61.1082 27.4987V27.5194C61.3879 28.2548 61.2118 29.2387 61.015 29.8809Z" fill="#373434"/><path d="M50.0301 90.1699L50.8804 89.4148C48.1802 86.5665 48.1927 82.2589 50.9187 76.61C52.5583 73.2108 54.9073 69.9347 56.8576 67.4935C56.5127 67.3009 56.1782 67.0968 55.8654 66.8669C50.8389 73.159 44.0642 83.8778 50.0301 90.1699Z" fill="#A5A7A8"/><path d="M71.6251 67.3786C71.1611 65.7027 69.8902 64.3242 68.2196 63.6903C68.2196 63.6903 66.1025 62.9197 66.0911 62.9125C66.1605 62.3314 66.2113 61.2211 66.2372 58.9912C66.261 56.9249 66.2486 54.8017 66.232 54.5241C66.1036 52.3967 65.9845 50.8016 65.3257 48.4599C65.187 48.1253 64.4298 47.8995 64.0073 48.0746C64.6908 50.2817 64.9166 52.087 65.0689 54.5676C65.1051 55.1486 65.1062 60.987 64.9539 62.6162C64.1761 62.5386 62.7727 62.4008 62.7727 62.4008C60.9974 62.2247 59.2553 62.8938 58.1119 64.1937C57.449 64.9425 56.6805 65.8457 55.8654 66.869C56.1781 67.0979 56.5117 67.3019 56.8566 67.4956C57.6686 66.4816 58.4091 65.6116 59.0047 64.9384C59.9047 63.9151 61.2791 63.3858 62.6784 63.5267C63.5712 63.6147 64.1657 63.6737 64.5614 63.7131C65.0513 63.7628 65.5308 63.8757 65.9938 64.0487C66.3656 64.1926 66.9373 64.4081 67.8146 64.7426C69.13 65.2418 70.1336 66.3304 70.4982 67.652C70.7002 68.3853 70.9394 69.2916 71.1807 70.3211C71.5629 70.2828 71.9482 70.2175 72.3304 70.1481C72.088 69.1196 71.8478 68.1854 71.6251 67.3786Z" fill="#393B42"/><path d="M72.3304 70.146C71.9461 70.2165 71.5629 70.2817 71.1797 70.319C71.913 73.4469 72.6888 77.7121 72.6826 81.7411C72.6743 88.029 70.8131 91.9026 67.1517 93.2522L67.5857 94.3097C75.8975 91.246 74.1678 77.9782 72.3304 70.146Z" fill="#A5A7A8"/><path d="M34.1605 50.2682C33.1683 52.2113 32.3946 54.3656 31.8364 56.7747C30.9177 60.7136 30.6732 64.8234 30.5417 68.6701L32.0849 68.7178C32.3076 62.0549 32.8545 55.1476 36.3687 49.4376C36.3718 49.3899 36.3718 49.3433 36.376 49.2957C36.1243 49.2874 35.6365 49.304 35.0989 49.5546C34.6256 49.7783 34.3211 50.0829 34.1605 50.2682Z" fill="#393B42"/><path d="M35.5536 72.579C35.8364 75.0533 33.9834 77.2822 31.4148 77.5567C28.8462 77.8312 26.5334 76.0476 26.2496 73.5733C25.9658 71.0979 27.8188 68.87 30.3884 68.5955C32.957 68.3211 35.2698 70.1046 35.5536 72.579Z" fill="#393B42"/><path d="M34.5676 72.6846C34.7913 74.6349 33.3309 76.3925 31.3061 76.608C29.2812 76.8244 27.4583 75.4189 27.2346 73.4676C27.0109 71.5173 28.4713 69.7607 30.4961 69.5443C32.522 69.3278 34.3449 70.7343 34.5676 72.6846Z" fill="#A5A7A8"/><path d="M40.6308 45.8353L50.6784 54.5862L44.7923 61.6323L38.7395 49.1652L40.6308 45.8353Z" fill="white"/><path d="M60.8317 45.8353L50.9985 54.5862L56.6712 61.6323L62.724 49.1652L60.8317 45.8353Z" fill="#E6E7E8"/><path d="M39.4718 85.1507C38.9374 85.1372 38.3957 85.2304 37.8757 85.3941C37.2502 85.5919 36.6577 85.8964 36.1647 86.3086C34.7654 87.478 33.8933 89.014 34.2072 90.9197C34.2517 91.1921 34.3263 91.4718 34.5086 91.6799C34.7633 91.971 35.1849 92.0652 35.5681 92.0207C36.5023 91.912 37.1953 91.1372 38.0114 90.6691C38.261 90.5261 38.5293 90.4195 38.8027 90.3345C39.1279 90.233 39.4625 90.1657 39.8022 90.1512C41.217 90.0901 44.7851 90.7488 43.9969 88.1067C43.5443 86.5841 40.9643 85.19 39.4718 85.1507Z" fill="#6FC3DF"/><path d="M33.9213 87.7607C35.5836 87.1962 33.796 84.7882 32.8503 84.2019C31.8384 83.5753 30.7665 83.7928 30.7147 85.1362C30.7105 85.247 30.7116 85.3537 30.7167 85.4562C30.7955 86.9238 32.4516 88.2599 33.9213 87.7607Z" fill="#6FC3DF"/><path d="M34.1813 84.0818C34.8483 84.6111 35.6116 85.1714 36.4578 85.0813C36.6235 85.0637 36.7913 85.0181 36.9249 84.9176C37.0502 84.8224 37.1362 84.6846 37.2046 84.5427C37.5443 83.8301 37.4687 82.9705 37.1528 82.2465C36.695 81.2004 35.3858 79.4044 34.0508 79.9793C33.6147 80.1667 33.3154 80.5458 33.1455 80.9974C32.8648 81.7452 32.9415 82.6887 33.3496 83.277C33.5712 83.5961 33.8778 83.8415 34.1813 84.0818Z" fill="#6FC3DF"/><path d="M45.0233 81.247C43.3651 80.8016 41.8436 82.8514 42.0135 84.3583C42.0497 84.6794 42.1523 85.0098 42.3895 85.2294C43.1911 85.9689 44.7292 85.276 45.3206 84.5986C45.7918 84.059 46.1098 83.0388 45.941 82.2548C45.8374 81.7783 45.5567 81.3899 45.0233 81.247Z" fill="#6FC3DF"/><path d="M39.5754 84.1056C39.7411 84.1253 39.9089 84.0797 40.0601 84.0114C40.8358 83.6613 41.2118 82.7923 41.5205 81.9979C41.6603 81.6365 41.8012 81.2698 41.8312 80.8835C41.8871 80.1698 41.4759 79.3164 40.8555 78.813C40.4806 78.5096 40.03 78.3325 39.5598 78.3905C38.117 78.5707 37.8964 80.7809 38.029 81.9161C38.1212 82.7001 38.4909 83.48 39.1445 83.9233C39.276 84.0124 39.42 84.087 39.5754 84.1056Z" fill="#6FC3DF"/></svg>