<svg width="100" height="100" viewBox="0 0 100 100" fill="none" xmlns="http://www.w3.org/2000/svg"><path d="M99.9989 49.9948C99.9989 53.8995 99.5432 57.7214 98.6939 61.3672C98.6939 61.3775 98.6939 61.3775 98.6939 61.3879C97.0161 68.5759 93.7846 75.1735 89.3723 80.7975C88.5427 81.8747 87.6634 82.9104 86.7302 83.9151C83.364 87.5609 79.4593 90.7095 75.1414 93.2159C75.0896 93.2574 75.0367 93.2885 74.9756 93.3092C74.4888 93.5992 73.9917 93.8788 73.4842 94.1481C73.3195 94.2413 73.1538 94.3242 72.9881 94.407C72.8534 94.4899 72.7074 94.5624 72.5634 94.6349C66.349 97.7835 59.3785 99.6686 52.0041 99.9586C51.5795 99.9793 51.1548 99.9896 50.7302 99.9896C50.4816 100 50.2434 100 49.9948 100C49.5598 100 49.1248 99.9896 48.6898 99.9896C45.7783 99.9068 42.9301 99.5857 40.1657 99.0264C35.0699 98.0114 30.2434 96.2092 25.8312 93.7649C25.7483 93.7235 25.6769 93.682 25.6033 93.6406C20.1139 90.5748 15.2667 86.494 11.3102 81.6675C4.24649 73.0399 0 62.0197 0 49.9948C0 22.3822 22.3811 0 49.9948 0C75.392 0 96.3656 18.9228 99.5753 43.4386C99.5753 43.4593 99.5753 43.4697 99.5857 43.4904C99.854 45.624 99.9989 47.7991 99.9989 49.9948Z" fill="#70939B"/><path d="M73.6126 33.5816C73.9099 40.9695 64.3677 46.1274 49.74 46.1274C35.9368 46.1274 29.5474 40.4982 28.6898 33.6779C28.5676 32.7178 28.5096 31.7701 28.5676 30.841C28.6712 29.042 29.2056 27.3465 30.521 25.9027C33.1517 23.014 35.7752 22.2797 39.6768 22.1502C42.2879 22.0663 45.4728 22.26 49.6054 22.26C55.5753 22.26 59.914 21.8923 63.4531 22.5044C66.0248 22.9425 68.173 23.9037 70.2154 25.9016C71.3309 26.9912 72.1367 28.2289 72.6784 29.4987C73.2771 30.8793 73.5609 32.2983 73.6126 33.5816Z" fill="#C12929"/><path d="M57.8793 47.101C57.8743 47.105 57.8693 47.111 57.8633 47.116L57.8763 47.103L57.8793 47.101Z" fill="#DBA18F"/><path d="M57.2936 47.6478C57.4687 47.4562 57.6634 47.2833 57.8643 47.1165L56.9135 48.0663C57.0399 47.9254 57.1652 47.7877 57.2936 47.6478Z" fill="#DBA18F"/><path d="M59.6831 51.767C59.3672 50.7778 59.2076 49.7473 59.2076 48.7126V46.1253C58.7571 46.4412 58.2993 46.7488 57.8798 47.1L57.8768 47.102L56.9104 48.0653C56.4422 48.5821 55.9637 49.0782 55.4417 49.5298L55.4376 49.5329C54.9964 49.9161 54.5293 50.2693 53.9793 50.5541C53.1497 50.9798 51.9979 50.9891 50.9321 50.9373V54.0269L50.9332 54.0259L50.8741 59.682H50.9135H50.9363C54.8337 59.6033 58.2858 57.6945 60.463 54.7758L60.5313 54.6453C60.5976 54.665 60.0891 53.0357 59.6831 51.767Z" fill="#E0A579"/><path d="M50.9321 54.028V50.9384L50.9311 50.9373C50.7996 50.9436 50.6629 50.9446 50.5282 50.9477C50.3894 50.9518 50.2517 50.9591 50.1129 50.9591C49.9544 50.9591 49.798 50.9477 49.6427 50.9394C49.5298 50.9353 49.4148 50.9363 49.304 50.9259C49.1227 50.9083 48.9539 50.8731 48.7809 50.84C48.7022 50.8244 48.6162 50.8193 48.5396 50.8006C48.2962 50.7406 48.0684 50.6598 47.8581 50.5531C46.4775 49.8426 45.5494 48.7468 44.5448 47.6458C43.8571 46.8897 42.9384 46.3687 42.1201 45.7514L42.0135 49.3485C41.9969 49.8819 41.9192 50.4039 41.7763 50.9166C41.4169 52.2051 40.7395 54.6681 40.8172 54.6442L40.8213 54.6546C42.0984 56.405 43.8177 57.8032 45.8343 58.6691H45.8353L45.8384 58.6701C47.0243 59.1921 48.3242 59.5256 49.68 59.6375C49.9803 59.6593 50.2817 59.682 50.581 59.682H50.5821H50.8037H50.8731L50.9332 54.0259L50.9321 54.028Z" fill="#EAB081"/><path d="M50.7292 59.5443V99.9897C50.4806 100 50.2423 100 49.9938 100C49.5588 100 49.1238 99.9897 48.6888 99.9897C45.7773 99.9068 42.929 99.5857 40.1647 99.0264C35.0689 98.0114 30.2424 96.2092 25.8301 93.7649V93.7442C25.7991 92.9674 25.7887 92.3045 25.8198 91.7763C25.768 92.2527 25.6955 92.8949 25.6023 93.6406C20.1129 90.5748 15.2656 86.4941 11.3091 81.6675C11.8156 77.6903 12.5313 73.7649 13.8571 69.912C15.1724 66.1419 16.4567 63.2419 17.6364 61.9265C18.869 60.5593 19.6251 59.7618 21.4272 59.2129C22.0797 59.0057 29.3299 58.3739 30.407 57.8768V57.7939C30.4588 57.7732 30.5116 57.7628 30.5624 57.7421C30.5624 57.7421 30.5728 57.7318 30.5728 57.7214V57.7421C32.4889 57.1621 34.4153 56.5821 36.0828 56.0642C36.4961 55.9503 36.8804 55.826 37.2636 55.7121L37.4293 55.6603C38.7136 55.2667 39.7597 54.9456 40.3915 54.7696C40.5365 54.7178 40.6712 54.6867 40.7737 54.666C40.7851 54.6971 40.8151 54.7281 40.8565 54.7799C41.1372 55.1631 41.4687 55.5256 41.8301 55.8674C41.8405 55.8778 41.8508 55.8882 41.8612 55.8985C43.0005 56.9653 44.4713 57.8457 46.0756 58.4775C46.376 58.6018 46.6763 58.7157 46.9663 58.8193C47.8674 59.1196 48.7996 59.3475 49.711 59.4925C49.9586 59.5339 50.1875 59.565 50.3936 59.5857C50.5117 59.5754 50.6152 59.5546 50.7292 59.5443Z" fill="#8A522B"/><path d="M52.0031 99.9586C51.5784 99.9793 51.1538 99.9897 50.7292 99.9897V59.5443C50.7809 59.5339 50.8224 59.5339 50.8741 59.5236C54.3646 59.0161 58.0725 57.2864 59.9368 54.7799C59.9896 54.7281 60.3615 54.3967 60.3832 54.3553C60.4246 54.3656 60.4661 54.3967 60.5075 54.4174V54.4278C60.5696 54.4588 60.6318 54.5003 60.7032 54.5313C61.3454 54.7074 62.0808 55.2667 63.3651 55.6603L63.5412 55.7121C63.914 55.826 64.3076 55.9503 64.7115 56.0642C66.3687 56.5821 68.3055 57.1621 70.2216 57.7421V57.7214C70.2216 57.7318 70.232 57.7421 70.232 57.7421C70.2838 57.7628 70.3356 57.7732 70.3873 57.7939V57.8768C71.4645 58.3739 78.7146 59.0057 79.3672 59.2129C81.1797 59.7618 81.9254 60.5593 83.1579 61.9265C84.348 63.2419 85.623 66.1419 86.928 69.912C88.1605 73.4749 88.8648 77.1207 89.3723 80.7975C88.5427 81.8747 87.6634 82.9104 86.7302 83.9151C83.364 87.5609 79.4593 90.7095 75.1414 93.216C75.0689 92.6359 75.0171 92.1492 74.9756 91.7556C74.9963 92.1802 74.9963 92.7085 74.9756 93.3092C74.4888 93.5992 73.9917 93.8788 73.4842 94.1481C73.3195 94.2413 73.1538 94.3242 72.9881 94.4071C72.8534 94.4899 72.7074 94.5624 72.5634 94.6349C66.348 97.7835 59.3775 99.6686 52.0031 99.9586Z" fill="#7C4724"/><path d="M40.3408 45.246C40.4288 45.9151 40.7519 46.5313 41.2532 46.984L45.6292 50.9363C44.6484 46.5614 42.2289 42.9912 39.5505 39.2263L40.3408 45.246Z" fill="#F0B784"/><path d="M61.5225 41.0347L62.2786 34.9612C62.2703 32.5365 62.3511 30.0974 62.2496 27.6748C62.1895 26.2455 61.7369 25.4252 60.4008 24.636C58.7664 23.6686 57.5153 24.1626 56.0663 24.665C55.5888 24.8307 55.0906 24.9964 54.5489 25.1114C53.0026 25.4387 51.2936 25.7318 49.8115 25.0575C47.3785 23.9524 45.0254 22.1543 42.1149 22.3118C41.5991 22.3397 41.0782 22.4412 40.6256 22.6691C39.6654 23.1518 39.1445 24.1243 38.8638 25.0793C38.1688 27.4376 39.2159 29.4211 38.9518 31.853C38.9715 32.9488 38.9902 34.0373 39.0098 35.1331L39.5494 39.2253C42.2278 42.9902 44.6473 46.5604 45.6281 50.9353L46.6732 51.8809C47.1652 52.3252 47.8063 52.5686 48.4681 52.5645L50.7032 52.5469L52.9435 52.5303C53.6033 52.5251 54.2372 52.2745 54.7219 51.8271L56.2765 50.3905C56.3459 46.4236 57.7555 42.463 61.5225 41.0347Z" fill="#FFC28E"/><path d="M61.5225 41.0347C57.7556 42.462 56.3459 46.4236 56.2776 50.3915L60.3905 46.5914C60.7115 46.2942 60.9187 45.8934 60.9715 45.4594L61.5225 41.0347Z" fill="#F0B784"/><path d="M40.4308 35.0741C40.2631 33.9938 40.1378 33.1341 40.0632 32.8949C39.9917 32.6629 39.8726 32.3957 39.6126 32.3428C39.4728 32.3138 39.3164 32.4775 39.1942 32.406C38.2579 31.8592 37.6748 32.4878 37.3806 33.363C37.0357 34.3874 37.1382 35.0554 37.6178 35.9689C38.175 37.0275 38.5272 38.1927 38.9953 39.2936C39.1155 39.5774 39.6251 41.187 40.0487 41.1849C40.0538 41.1849 42.0901 41.1694 42.0901 41.1694C41.4107 41.1735 40.813 37.5464 40.4308 35.0741Z" fill="#FFC28E"/><path d="M60.8534 34.9229C60.9674 34.1502 61.1383 33.392 61.564 32.5386C61.7659 32.1326 62.2113 31.6582 62.6442 31.8674C63.2304 32.1502 63.652 32.8483 63.8985 33.4231C64.2796 34.3087 63.9078 34.7716 63.5412 35.6199C63.304 36.1699 61.6468 41.0223 61.2801 41.0254L59.2387 41.0409C59.6799 39.7162 60.3159 38.348 60.5644 36.9871C60.7022 36.2455 60.7571 35.5795 60.8534 34.9229Z" fill="#FFC28E"/><path d="M39.9803 37.0772C39.7804 35.2243 39.6395 33.3558 39.2874 31.5256C38.8192 29.0917 40.1709 26.5666 41.6012 24.4785C41.8353 24.1378 42.1139 23.7804 42.5386 23.6603C43.1134 23.4967 43.7007 23.825 44.1968 24.1295C45.8591 25.1507 49.6126 26.4557 49.6126 26.4557C49.6126 26.4557 53.5225 26.579 55.3982 26.174C56.6877 25.8954 58.435 24.9643 59.7421 25.7162C60.8079 26.3283 61.0979 28.2362 61.5339 29.3527L61.6085 38.5676L62.8161 34.8845C63.7773 31.6458 64.0217 24.173 64.0217 24.173C64.0217 24.173 58.8193 18.8866 55.769 19.4604C56.8493 19.2574 58.8276 19.5526 59.9078 19.3496C55.7939 18.0891 52.4102 16.8928 49.0192 17.4511C45.6292 18.0093 42.4702 19.5008 39.8291 21.4946C38.6535 22.3832 36.8679 24.6266 36.8679 24.6266C36.8679 24.6266 36.8959 32.6453 39.9803 37.0772Z" fill="#171B21"/><path d="M45.8571 44.6774C47.1828 45.0316 49.1196 45.3848 51.4531 45.247C53.2128 45.1424 54.6908 44.7892 55.8032 44.4319C55.4438 45.1569 55.0865 45.8819 54.7281 46.608C54.1346 46.9674 52.4495 47.8799 50.2506 47.6189C49.13 47.4853 48.261 47.0927 47.7089 46.781C47.0916 46.0798 46.4733 45.3786 45.8571 44.6774Z" fill="white"/><path d="M41.6489 35.1942C47.5225 34.0414 48 36.4278 48 36.4278C48 36.4278 48.6598 35.0616 47.943 34.1108C44.9715 33.3755 41.6489 35.1942 41.6489 35.1942Z" fill="#171B21"/><path d="M53.3454 33.8395C52.6763 34.8244 53.4034 36.1564 53.4034 36.1564C53.4034 36.1564 53.7628 33.7504 59.6851 34.6121C59.6851 34.6121 56.2765 32.9601 53.3454 33.8395Z" fill="#171B21"/><path d="M48.9032 41.3247L50.0601 42.5749C50.2972 42.6743 51.2884 43.0575 52.4495 42.6515C53.768 42.1885 54.2972 41.0575 54.3863 40.8607L53.1693 44.0964C51.2449 43.9596 51.3837 43.969 49.4593 43.8333L48.9032 41.3247Z" fill="#E0A579"/><path d="M44.1564 82.2289H29.6634V88.3045H44.1564V82.2289Z" fill="#F4D954"/><path d="M70.3635 82.2289H55.8705V88.3045H70.3635V82.2289Z" fill="#F4D954"/><path d="M40.4019 52.5655C38.9694 52.6784 31.6271 57.1134 30.407 57.7939C32.7602 60.7281 35.1155 63.6634 37.4687 66.5986C38.4101 67.7731 40.2206 67.7069 41.0637 66.4609C41.9109 65.2087 43.0896 63.8125 44.7095 62.5417C46.8596 60.8534 48.9829 60.0165 50.3988 59.5888C49.0637 59.4552 46.7271 59.0378 44.2796 57.5453C42.5489 56.4909 41.1434 53.4697 40.4019 52.5655Z" fill="#7C4724"/><path d="M60.3936 52.5655C61.6271 52.4889 69.4448 57.0772 70.3894 57.7939C68.0652 60.6908 65.7421 63.5888 63.4179 66.4858C62.4567 67.6841 60.6131 67.5795 59.7825 66.2869C59.1673 65.3278 58.3521 64.289 57.2801 63.2936C54.6193 60.8255 51.7763 59.9275 50.3977 59.5888C52.0973 59.2584 54.6597 58.522 57.2801 56.7395C58.5883 55.8488 59.6126 53.4076 60.3936 52.5655Z" fill="#8A522B"/><path d="M66.8824 27.9337H33.8809C34.0746 26.0518 34.4609 24.2206 35.0606 22.4537C36.6142 17.8571 39.3412 14.6649 42.551 12.7696C44.9176 11.3641 47.5412 10.6743 50.1657 10.6422C50.2361 10.6359 50.3076 10.6297 50.378 10.6297C52.9508 10.6297 55.5422 11.2677 57.8829 12.5831C61.2346 14.4526 64.0973 17.7079 65.7038 22.4537C66.2952 24.2206 66.6815 26.0508 66.8824 27.9337Z" fill="#D64545"/><path d="M57.8819 12.5831V26.9726H42.55V12.7706C44.9166 11.3651 47.5401 10.6753 50.1647 10.6432C50.2351 10.637 50.3065 10.6308 50.377 10.6308C52.9497 10.6297 55.5411 11.2677 57.8819 12.5831Z" fill="#D03730"/><path d="M50.2164 8.38632L44.1564 13.6385V26.9725H56.2765V13.6385L50.2164 8.38632Z" fill="#F4D954"/><path d="M72.6773 29.4997C71.8519 29.5132 71.015 29.4158 70.1823 29.3516C66.4308 29.0554 62.5883 29.3392 59.0492 30.6028C56.4826 31.5184 54.059 32.7499 51.2667 32.7178C47.624 32.6722 44.291 31.0865 40.8928 29.971C40.2165 29.7514 39.4231 29.4231 38.6245 29.1455C37.8508 28.8752 37.0709 28.6556 36.3873 28.6297C34.6204 28.5655 32.3128 29.7773 30.6297 30.2931C29.9596 30.4992 29.2698 30.7053 28.5665 30.841C28.6701 29.0419 29.2045 27.3464 30.5199 25.9026C33.1507 23.014 35.7742 22.2796 39.6758 22.1502C41.7452 22.5303 43.8011 23.0078 45.8519 23.42C49.1849 24.0839 52.8793 24.116 56.2579 23.4977C58.5261 23.0854 60.3511 22.4536 62.6649 22.492C62.9301 22.4982 63.188 22.4982 63.4521 22.5054C66.0238 22.9435 68.1719 23.9047 70.2144 25.9026C71.3299 26.9922 72.1367 28.2299 72.6773 29.4997Z" fill="#D03730"/></svg>