<svg width="100" height="100" viewBox="0 0 100 100" fill="none" xmlns="http://www.w3.org/2000/svg"><path d="M100.002 49.9637V49.9948C100.002 52.3356 99.8467 54.6453 99.536 56.9032C99.0699 60.3521 98.2413 63.6872 97.0916 66.8773C96.8638 67.4987 96.637 68.1201 96.3874 68.7312C94.2745 73.972 91.2916 78.7675 87.6147 82.9415C86.1957 84.5572 84.6722 86.0901 83.0471 87.5091C82.4567 88.0373 81.8457 88.5448 81.2232 89.0316C80.9539 89.2594 80.6753 89.477 80.406 89.6841C77.7224 91.7556 74.813 93.5474 71.7369 95.0285C71.1051 95.3392 70.4526 95.6292 69.8001 95.9089C68.5986 96.4267 67.3765 96.9032 66.1232 97.3174C66.0818 97.3382 66.029 97.3589 65.9876 97.3692L60.5707 98.871C59.4107 99.1196 58.2403 99.3268 57.0595 99.4925C56.3345 99.5961 55.5992 99.6893 54.8638 99.7514C54.6877 99.7721 54.522 99.7929 54.3459 99.8032H54.2734C52.8752 99.9379 51.4666 100 50.0269 100C50.0155 100 50.0155 100 50.0052 100C49.8602 100 49.7152 100 49.5702 99.9896C49.1973 99.9896 48.8348 99.9793 48.4619 99.9689C47.6137 99.9482 46.7633 99.8964 45.914 99.8343C45.8208 99.8239 45.7276 99.8136 45.6344 99.8032H45.624C44.9922 99.7514 44.3594 99.6789 43.739 99.6064C42.2786 99.42 40.8493 99.1818 39.4303 98.871C37.8985 98.5396 36.3863 98.146 34.9042 97.6696C34.5324 97.5557 34.1585 97.4314 33.797 97.3071C32.8017 96.9653 31.8187 96.6028 30.8545 96.1989C30.7934 96.1781 30.7416 96.1471 30.6784 96.1264C26.029 94.1792 21.74 91.5484 17.9389 88.3584C17.8871 88.3066 17.8249 88.2651 17.7732 88.2134C6.89797 79.0471 0 65.3237 0 49.9948C0 22.3822 22.3925 0 50.0052 0C73.0606 0 92.4702 15.6085 98.2392 36.8307C99.2532 40.5593 99.855 44.464 99.9689 48.4826C99.9917 48.9798 100.002 49.4666 100.002 49.9637Z" fill="#5ABAD3"/><path d="M40.3905 58.3149C40.3905 58.3149 44.637 54.2962 42.7157 44.8721C41.9119 40.9249 58.6794 46.3408 58.6794 46.3408C57.6758 48.696 56.9021 51.7411 57.9958 54.6339C58.9031 57.0337 60.4795 57.6955 60.1688 59.0606C59.6406 61.3786 52.8472 93.5246 51.2253 93.3651C49.5847 93.2035 42.8275 61.7266 42.1585 60.7426C41.5722 59.8809 41.0813 59.0948 40.3905 58.3149Z" fill="#EAB081"/><path d="M44.5572 73.3506H56.9912L49.7442 85.7929L44.5572 73.3506Z" fill="white"/><path d="M84.2838 46.2455L81.3516 39.0938L77.6934 35.0378C77.4366 34.5562 77.015 34.1668 76.4795 33.9172C74.4961 32.9912 68.1046 29.3216 67.9151 31.0606C67.826 31.8747 68.8151 33.0192 70.5893 34.406C70.1305 34.2993 69.5225 34.1543 69.0616 34.4702C68.1523 35.0938 69.0513 35.6717 69.507 36.0311C70.4889 36.8069 71.4707 37.5816 72.4537 38.3573C73.0492 38.8286 73.421 39.4832 73.5039 40.2144C73.5039 40.2144 75.3413 46.0974 75.7773 46.578L79.8281 49.5847L84.2838 46.2455Z" fill="#EDBF88"/><path d="M96.3874 68.7312C94.2745 73.972 91.2915 78.7675 87.6147 82.9415C86.1957 84.5572 84.6722 86.0901 83.0471 87.5091C82.4567 88.0373 81.8457 88.5448 81.2232 89.0316C80.7582 88.6794 80.3231 88.3377 79.9078 88.0166C75.7856 84.7955 71.1248 80.725 70.1201 81.564C69.768 81.8643 69.6437 82.9726 69.6333 82.9726C69.6333 81.3257 68.2454 89.9327 67.9347 90.8856C67.5815 91.942 66.7851 94.5935 66.1222 97.3175C66.0808 97.3382 66.028 97.3589 65.9865 97.3693L60.5696 98.8711C59.4096 99.1196 58.2392 99.3268 57.0585 99.4925C56.3335 99.5961 55.5981 99.6893 54.8627 99.7514C54.6867 99.7721 54.521 99.7929 54.3449 99.8032H54.2724C52.8741 99.9379 51.4656 100 50.0259 100C50.0145 100 50.0145 100 50.0041 100C49.8591 100 49.7141 100 49.5691 99.9897V84.1947L49.8281 85.0233L50.9052 81.5743C51.5577 79.42 52.4795 76.4682 53.4738 73.3506C53.6799 72.7085 53.8871 72.0663 54.0953 71.4138L54.5096 70.1191C55.7928 66.1316 57.0989 62.2268 58.0518 59.6686C58.58 58.2393 58.9933 57.2242 59.2522 56.8514C59.2729 56.81 59.305 56.7789 59.3247 56.7478C59.3247 56.7478 62.0072 57.7732 64.5251 58.7364C66.5437 59.4925 68.4505 60.2072 68.7809 60.3107C74.9746 62.2061 79.5733 67.9027 83.3951 72.9881C85.1455 75.3289 85.8187 75.9296 87.538 77.5453L78.5997 49.073L78.8586 48.8659L83.7151 44.8887L84.4712 44.2776C84.4764 44.2776 91.7576 56.0228 96.3874 68.7312Z" fill="#11A387"/><path d="M49.5722 84.1947V99.9896C49.1994 99.9896 48.8369 99.9793 48.464 99.9689C47.6157 99.9482 46.7654 99.8964 45.9161 99.8343C45.8229 99.8239 45.7297 99.8136 45.6365 99.8032C45.6261 99.7929 45.6261 99.8032 45.6261 99.8032C44.9943 99.7514 44.3614 99.6789 43.741 99.6064C42.2807 99.42 40.8514 99.1818 39.4324 98.8711C37.9006 98.5396 36.3884 98.146 34.9062 97.6696C34.5344 97.5557 34.1605 97.4314 33.799 97.3071C33.1351 94.5831 32.349 91.942 31.9865 90.8856C31.6644 89.9327 31.2812 88.6794 31.2304 87.4366C31.2719 88.3584 31.0854 92.0456 30.6815 96.1264C26.0321 94.1792 21.7431 91.5484 17.942 88.3584C17.8902 88.3066 17.8281 88.2652 17.7763 88.2134C18.6163 80.7354 19.7131 72.5945 20.4288 69.8705C21.8063 64.7644 26.1046 61.854 31.1279 60.3107C31.3868 60.2382 32.4743 59.9793 33.8622 59.6064C35.9958 59.0161 38.8337 58.115 40.4598 57.0585C40.5427 56.9964 40.5842 57.0067 40.6556 57.0482C40.6971 57.0896 40.7602 57.1517 40.8524 57.2242C40.8731 57.2346 40.9249 57.2657 40.987 57.2967H40.9974C41.0388 57.3278 41.0803 57.3589 41.1217 57.3796C41.1631 57.4003 41.1942 57.421 41.1942 57.421L46.1761 73.3506L49.5722 84.1947Z" fill="#14AD93"/><path d="M41.073 56.6763L34.0394 63.0388L40.8534 67.8509L37.4987 72.8586L49.8353 85.0275L41.073 56.6763Z" fill="#A4D7E7"/><path d="M58.8566 56.2859L65.6603 63.0388L58.8472 67.8509L62.0766 75.0005L49.8353 85.0275L58.8566 56.2859Z" fill="#A4D7E7"/><path d="M63.9679 32.8027C63.9855 32.7602 63.9699 32.6794 63.9482 32.5966C63.9244 32.7851 63.913 32.9384 63.9679 32.8027Z" fill="#A74214"/><path d="M60.7447 34.1823C60.3584 32.607 59.5484 31.187 58.4806 29.9648C56.9322 28.1906 54.9094 26.9332 52.6338 26.3159C51.7245 26.0684 50.7716 25.941 49.9006 25.5671C49.8457 25.5443 49.7939 25.5174 49.7431 25.4904V53.2647C49.7752 53.2636 49.8084 53.2647 49.8415 53.2626C50.4889 53.304 51.159 53.2408 51.8912 52.9881C53.6882 52.3667 55.072 51.1176 56.4557 49.969C56.5914 49.8571 56.7261 49.7452 56.8607 49.6365C58.8711 48.0145 59.681 45.6448 60.436 43.42C61.3744 40.6608 61.4345 36.9892 60.7447 34.1823Z" fill="#F0B784"/><path d="M48.4184 24.1461C48.0756 23.8105 47.6706 23.4273 47.2129 22.9084C46.956 22.6173 46.6867 22.3273 46.3511 22.1336C45.6934 21.7546 44.8669 21.796 44.1409 22.0166C42.3242 22.5686 40.9415 24.1471 40.2703 25.9223C39.6644 27.5277 39.7338 29.0813 39.6914 30.7551C39.6551 32.1854 39.1062 33.2988 38.8172 34.7323C38.2807 37.3962 38.3646 40.8265 39.247 43.4221C40.0031 45.6458 40.812 48.0156 42.8213 49.6386C43.0419 49.8157 43.2615 49.999 43.4811 50.1813C44.782 51.2678 46.1036 52.406 47.7908 52.9892C48.4868 53.2294 49.1258 53.2947 49.7442 53.2657C49.7763 53.2647 49.7442 49.0803 49.7442 48.8421C49.7442 43.6199 49.7442 38.3978 49.7442 33.1756C49.7442 31.1466 49.7442 29.1176 49.7442 27.0886C49.7442 25.5132 49.2667 24.9757 48.4184 24.1461Z" fill="#FFC28E"/><path d="M39.1631 43.0264C38.6991 42.928 38.2444 42.7737 37.8964 42.4557C37.4283 42.028 37.245 41.3724 37.1466 40.7426C37.0471 40.1171 37.014 39.4656 36.7695 38.8804C36.6049 38.492 36.3521 38.1481 36.202 37.7577C36.0487 37.3662 36.0155 36.8866 36.2672 36.55C36.5231 36.2134 36.9922 36.1181 37.4158 36.1253C37.9026 36.1326 38.2869 36.29 38.58 36.5604C38.5572 36.8535 38.5469 37.1497 38.5438 37.4459C38.5251 38.638 38.6276 39.8395 38.8037 41.0171C38.9 41.6976 39.0243 42.3677 39.1631 43.0264Z" fill="#FFC28E"/><path d="M63.2481 37.7566C63.0979 38.1481 62.8452 38.492 62.6805 38.8794C62.436 39.4645 62.4029 40.116 62.3045 40.7416C62.2082 41.3713 62.0228 42.0269 61.5536 42.4547C61.2823 42.7074 60.9425 42.8535 60.5842 42.956C60.7789 42.3004 60.9239 41.6054 61.0274 40.8876C61.1952 39.7162 61.2429 38.4837 61.1838 37.2895C61.1693 36.9788 61.1435 36.6712 61.1155 36.3708C61.3672 36.2175 61.6706 36.1253 62.0342 36.1222C62.4578 36.115 62.927 36.2103 63.1828 36.5469C63.4386 36.8845 63.4024 37.3641 63.2481 37.7566Z" fill="#FFC28E"/><path d="M47.1932 16.5147C46.1222 16.757 45.0854 17.1289 44.0549 17.508C42.6163 18.0372 41.1631 18.5934 39.9358 19.51C35.247 23.0118 32.8721 28.6783 34.1554 34.5447C35.0689 38.7177 37.9969 43.1351 36.7499 47.5504C36.2558 49.2977 34.6691 50.8793 32.8607 50.727C33.1321 52.9165 35.3703 54.6628 37.5598 54.3925C39.8405 54.1107 41.7763 51.7027 40.9208 49.4727C39.8291 46.6307 39.0098 43.7503 38.5893 40.7063C38.0404 36.7374 39.507 33.0771 41.334 29.6364C42.3832 27.6612 43.218 25.6074 43.7338 23.4261C45.2294 25.3681 47.3206 26.8378 49.6416 27.6177V16.2309C48.7965 16.2464 47.9741 16.3376 47.1932 16.5147Z" fill="#964239"/><path d="M65.0482 31.39C64.841 29.2274 64.3408 27.044 63.7576 25.1031C62.1067 19.6095 55.3579 16.1295 49.6416 16.231V27.6199C50.1388 27.7867 50.6453 27.9234 51.159 28.0249C52.1523 28.2206 53.1683 28.2942 54.1554 28.5189C55.3817 28.7975 56.7074 29.2905 57.6354 30.174C58.5696 31.0647 58.9249 32.607 59.3133 33.827C60.6877 38.1512 60.6639 42.0767 59.827 46.4671C59.4542 48.4288 59.4345 50.6867 60.7882 52.1543C61.5888 53.0244 62.8193 53.4801 63.9948 53.3423C65.1704 53.2056 66.262 52.4796 66.8421 51.448C66.5873 51.9006 64.2289 49.448 64.0632 49.1952C63.3092 48.0445 63.0502 46.7882 63.0886 45.4335C63.187 42.0632 64.5635 38.9467 65.013 35.6282C65.1973 34.2766 65.188 32.8379 65.0482 31.39Z" fill="#7F372A"/><path d="M46.3635 11.536L42.0103 12.724C36.8141 14.1419 33.7276 19.6375 34.9342 25.1062L49.4831 21.1362V11.2253C48.4547 11.16 47.4044 11.2522 46.3635 11.536Z" fill="#14AD93"/><path d="M49.4832 11.2242V21.1352L58.7478 18.6069C57.3578 14.3501 53.5929 11.4811 49.4832 11.2242Z" fill="#11A387"/><path d="M65.6613 83.0005H56.0155V87.2522H65.6613V83.0005Z" fill="#A4D7E7"/><path d="M45.9161 99.8343C45.8229 99.8239 45.7297 99.8136 45.6364 99.8032C46.2475 99.5443 46.9415 99.3993 47.6768 99.3993H52.2444C52.9694 99.3993 53.6634 99.5443 54.2745 99.8032C52.8762 99.9379 51.4676 100 50.0279 100C50.0165 100 50.0166 100 50.0062 100C49.8612 100 49.7162 100 49.5712 99.9897C49.1983 99.9897 48.8358 99.9793 48.463 99.9689C47.6147 99.9482 46.7654 99.8964 45.9161 99.8343Z" fill="#21CCAF"/><path d="M42.5147 54.4195C42.5147 54.4195 51.8136 56.7592 58.2434 53.479C58.5831 54.0518 59.1983 54.9487 60.2082 55.7525C62.8607 57.8633 66.8431 58.2268 66.8431 58.2268C66.8431 58.2268 49.0419 62.7861 41.5598 56.6763C41.8767 55.9244 42.1957 55.1725 42.5147 54.4195Z" fill="#14AD93"/><path d="M43.3899 55.0772C43.3899 55.9606 42.6742 56.6763 41.7908 56.6763C40.9073 56.6763 40.1916 55.9606 40.1916 55.0772C40.1916 54.1937 40.9073 53.479 41.7908 53.479C42.6742 53.479 43.3899 54.1947 43.3899 55.0772Z" fill="#21CCAF"/><path d="M28.7467 59.189C33.971 60.4267 40.4329 55.8208 41.2511 54.4195C32.8576 51.9182 28.7467 59.189 28.7467 59.189Z" fill="#14AD93"/><path d="M41.2511 55.0772C41.2511 55.0772 33.5577 54.7209 32.1833 64.8949C36.5137 62.2828 41.449 60.2445 41.2511 55.0772Z" fill="#21CCAF"/><path d="M44.7571 44.2827H55.1621C55.1621 44.2827 49.9845 52.5904 44.7571 44.2827Z" fill="white"/></svg>