<svg width="100" height="100" viewBox="0 0 100 100" fill="none" xmlns="http://www.w3.org/2000/svg"><path d="M100 50.0052C100 51.5277 99.9275 53.0399 99.7825 54.5313C99.6996 55.6188 99.565 56.696 99.3993 57.7628C99.2336 58.8503 99.0264 59.9171 98.7882 60.9736C96.9964 68.9694 93.2988 76.2403 88.1823 82.2682C88.1719 82.29 88.1616 82.2993 88.1512 82.3097C85.7483 85.1372 83.0347 87.7058 80.0621 89.943C78.4671 91.1445 76.8099 92.2527 75.0803 93.247C70.4712 95.9399 65.3962 97.8975 60 98.985C59.855 99.016 59.71 99.0471 59.565 99.0782C59.2128 99.161 58.8503 99.2232 58.4878 99.275C57.8975 99.3879 57.3071 99.4718 56.7167 99.5546C56.4371 99.596 56.1574 99.6271 55.8778 99.6582C55.246 99.7307 54.6038 99.7939 53.9513 99.8457C52.7395 99.9492 51.4966 99.9907 50.2537 100H49.9948C48.3376 100 46.7012 99.9171 45.0854 99.7628C44.9094 99.7411 44.7437 99.7317 44.5676 99.711C38.0943 99.0057 31.9938 97.0803 26.5044 94.1595C21.5432 91.508 17.0792 88.0487 13.2885 83.9575C13.1952 83.8436 13.0917 83.74 12.9881 83.6354C4.93009 74.7592 0 62.9518 0 50.0052C0 22.3925 22.3925 0 49.9948 0C73.7856 0 93.6924 16.6235 98.7571 38.8814C99.5753 42.465 100 46.1833 100 50.0052Z" fill="#BEDDE5"/><path d="M66.9414 20.9912C65.5701 19.448 63.2252 16.5407 62.5468 14.6867C62.2983 14.0073 61.6861 13.5184 60.958 13.39C58.7623 13.0047 53.9358 11.7918 51.42 10.3459C50.4205 9.77111 49.1962 9.7359 48.1646 10.2548C45.3381 11.6758 39.683 12.9912 37.5588 13.3682C36.7519 13.5111 36.1087 14.0974 35.9057 14.8731C35.451 16.6183 33.8736 19.0585 31.7524 20.9384C30.9953 21.6095 30.7768 22.6846 31.2574 23.565C32.4081 25.6779 35.0999 27.5433 36.5334 28.4474C39.2346 24.3905 43.9119 21.7007 49.2387 21.7007C54.5479 21.7007 59.2118 24.3698 61.9182 28.405C63.4355 27.4428 66.2465 25.4687 67.2791 23.2677C67.6354 22.5106 67.5007 21.6209 66.9414 20.9912Z" fill="#244356"/><path d="M32.7809 72.5013C29.8394 80.4039 28.2444 86.4526 27.333 90.5955C27.1465 91.4552 26.8876 92.667 26.5044 94.1585C21.5432 91.507 17.0792 88.0476 13.2884 83.9565C14.6556 77.3278 16.6546 75.5049 18.2703 69.7773C23.1072 70.6888 27.944 71.5899 32.7809 72.5013Z" fill="#FFC28E"/><path d="M88.1512 82.3097C85.7483 85.1372 83.0346 87.7058 80.0621 89.943C78.4671 91.1445 76.8099 92.2527 75.0802 93.247C74.8213 92.1699 74.6348 91.2791 74.4795 90.5955C73.568 86.4526 71.973 80.4039 69.0315 72.5013C73.8684 71.5899 78.7053 70.6888 83.5421 69.7773C84.6193 73.5888 85.8622 75.6706 86.9704 78.5914C86.9808 78.6225 86.9911 78.6546 87.0015 78.6846C87.3019 79.4511 87.5919 80.2797 87.8508 81.2222C87.8611 81.274 87.8715 81.3154 87.8922 81.3682C87.9854 81.6675 88.0683 81.9886 88.1512 82.3097Z" fill="#FFC28E"/><path d="M59.9783 54.2403C59.622 54.0601 59.3755 53.708 59.2429 53.332C58.5832 51.449 59.2191 44.6049 59.1259 43.39L40.0052 43.9255C39.9949 45.5226 40.5179 50.955 40.5096 52.0984C40.5013 53.3817 39.6003 54.5251 38.23 55.2284C38.3377 55.7856 38.608 56.2787 38.7251 56.8473C38.8462 57.4418 38.9902 58.0332 39.1922 58.6049C39.6034 59.7722 40.2579 60.8193 41.1518 61.6779C43.2636 63.709 46.0104 64.4475 48.6702 64.4765C52.2424 64.5148 55.5309 63.0264 57.9431 60.3335C58.3263 59.2999 58.8131 58.2994 59.0948 57.2263C59.217 56.7592 61.3983 55.0679 61.4055 55.0119C61.4211 54.8897 60.0891 54.2963 59.9783 54.2403Z" fill="#E2A77D"/><path d="M88.1823 82.2683C88.1719 82.29 88.1616 82.2994 88.1512 82.3097C85.7483 85.1373 83.0347 87.7059 80.0622 89.9431C78.4671 91.1445 76.8099 92.2527 75.0803 93.247C70.4713 95.9399 65.3962 97.8975 60 98.985C59.855 99.0161 59.71 99.0471 59.565 99.0782C59.2128 99.1611 58.8503 99.2232 58.4878 99.275C57.8975 99.3879 57.3071 99.4718 56.7167 99.5546C56.4371 99.5961 56.1574 99.6272 55.8778 99.6582C55.246 99.7307 54.6038 99.7939 53.9513 99.8457C52.7395 99.9493 51.4966 99.9907 50.2538 100V62.2786C50.6266 62.2579 51.5588 61.7401 52.7085 60.984C52.8017 60.9218 52.8845 60.8597 52.9777 60.7976C55.9192 58.8193 60.1036 55.4532 60.5489 54.5106C60.5697 54.4806 60.58 54.4485 60.5904 54.4278C60.6007 54.3978 61.9368 54.6764 63.884 55.1528C68.2237 56.2103 75.6189 58.1978 78.2082 59.7007C80.7872 61.1911 84.4122 71.0109 86.9705 78.5914C86.9808 78.6225 86.9912 78.6546 87.0016 78.6846C87.3019 79.5661 87.5816 80.4154 87.8509 81.2222C87.8612 81.274 87.8716 81.3154 87.8923 81.3682C87.9959 81.6779 88.0891 81.9783 88.1823 82.2683Z" fill="#244356"/><path d="M50.2538 62.2786V100H49.9949C48.3377 100 46.7012 99.9172 45.0855 99.7628C44.9094 99.7411 44.7437 99.7317 44.5676 99.711C38.0943 99.0057 31.9938 97.0803 26.5044 94.1595C21.5433 91.508 17.0793 88.0487 13.2885 83.9575C13.1953 83.8436 13.0917 83.74 12.9881 83.6354C14.5728 76.7167 16.9343 66.3387 17.7111 64.8379C18.1668 63.9565 18.664 63.7193 19.275 62.9529C20.839 61.0057 30.8752 57.1632 35.8157 55.651C37.3693 55.1745 38.4154 54.9363 38.55 55.0399C38.5604 55.0502 38.5604 55.0502 38.5604 55.0502C38.8711 55.4221 44.4019 59.0275 47.7577 61.0057C47.768 61.0161 47.7784 61.016 47.7888 61.0264C49.0834 61.7815 50.0466 62.289 50.2538 62.2786Z" fill="#264859"/><path d="M38.8399 44.6701C38.93 45.3993 39.2625 46.0704 39.7773 46.5634L44.2734 50.87C43.2656 46.1035 40.7788 42.2144 38.0269 38.1129L38.8399 44.6701Z" fill="#F0B784"/><path d="M60.606 40.0829L61.3827 33.4656C61.3745 30.8234 61.4573 28.1667 61.3537 25.5277C61.2916 23.97 60.8266 23.0782 59.4532 22.2175C57.7732 21.1631 56.4879 21.7027 55.0006 22.2486C54.5096 22.4288 53.9969 22.61 53.4408 22.7343C51.8519 23.0927 50.0953 23.4096 48.5728 22.6763C46.0726 21.4728 43.6541 19.5132 40.664 19.6851C40.1326 19.7152 39.5982 19.826 39.1331 20.0746C38.1481 20.6007 37.6127 21.6603 37.3237 22.7002C36.6091 25.2708 37.6852 27.4304 37.4138 30.0787C37.4335 31.2719 37.4532 32.4599 37.4729 33.653L38.0259 38.1118C40.7789 42.2133 43.2647 46.1036 44.2724 50.869L45.3465 51.8974C45.8519 52.3822 46.5107 52.6484 47.1911 52.6432L49.4874 52.6245L51.7898 52.6049C52.4672 52.5997 53.1186 52.3273 53.6168 51.8394L55.215 50.2734C55.2864 45.9523 56.7354 41.6375 60.606 40.0829Z" fill="#FFC28E"/><path d="M60.6059 40.0829C56.7353 41.6375 55.2863 45.9524 55.2159 50.2755L59.4417 46.1357C59.7721 45.8115 59.9834 45.3754 60.0393 44.9021L60.6059 40.0829Z" fill="#F0B784"/><path d="M38.9322 33.5888C38.7603 32.4112 38.6308 31.4749 38.5542 31.2139C38.4806 30.9622 38.3584 30.6701 38.0912 30.6121C37.9472 30.581 37.7867 30.7602 37.6603 30.6815C36.6981 30.0849 36.0995 30.7706 35.7971 31.7234C35.4439 32.8389 35.5485 33.567 36.0415 34.5624C36.6142 35.7152 36.9757 36.986 37.4573 38.1854C37.5806 38.494 38.1047 40.2475 38.5387 40.2444C38.5438 40.2444 40.636 40.2278 40.636 40.2278C39.939 40.2341 39.3258 36.2817 38.9322 33.5888Z" fill="#FFC28E"/><path d="M59.9192 33.4241C60.0362 32.5821 60.2123 31.7566 60.6483 30.8265C60.8565 30.3842 61.3133 29.8674 61.7597 30.0953C62.3625 30.4039 62.7944 31.1631 63.0481 31.7908C63.4396 32.7571 63.0574 33.2605 62.6815 34.1844C62.4381 34.783 60.7343 40.0704 60.3583 40.0725L58.261 40.0901C58.7136 38.6473 59.3671 37.1559 59.624 35.6727C59.7617 34.8648 59.8197 34.1398 59.9192 33.4241Z" fill="#FFC28E"/><path d="M38.4703 35.7721C38.2642 33.7535 38.1192 31.7183 37.7577 29.7234C37.2771 27.072 38.665 24.3211 40.1357 22.0466C40.375 21.6758 40.6619 21.2874 41.099 21.1559C41.6893 20.9767 42.2932 21.3351 42.8027 21.6665C44.5107 22.7789 48.3677 24.2009 48.3677 24.2009C48.3677 24.2009 52.3854 24.3356 54.3129 23.8933C55.6376 23.5898 57.4325 22.5759 58.7758 23.3951C59.8727 24.0632 60.1689 26.1408 60.6184 27.3568L60.695 37.3951L61.9358 33.3817C62.9239 29.855 63.1756 21.7121 63.1756 21.7121C63.1756 21.7121 57.8281 15.9534 54.695 16.579C55.8043 16.3573 57.8375 16.6805 58.9478 16.4588C54.7209 15.0854 51.2429 13.7825 47.7587 14.3894C44.2745 14.9974 41.0296 16.6214 38.316 18.7944C37.1083 19.7628 35.273 22.2071 35.273 22.2071C35.273 22.2071 35.2999 30.9435 38.4703 35.7721Z" fill="#7F372A"/><path d="M44.5074 44.0507C45.8705 44.4371 47.8611 44.8213 50.2589 44.6722C52.0673 44.5593 53.5856 44.174 54.7281 43.7846C54.3593 44.5748 53.9917 45.3641 53.624 46.1543C53.0139 46.5469 51.2822 47.5401 49.0232 47.2553C47.8715 47.1093 46.9787 46.6815 46.4111 46.3418C45.7773 45.5785 45.1424 44.8141 44.5074 44.0507Z" fill="white"/><path d="M40.1843 33.7193C40.1843 33.7193 43.5991 31.739 46.6525 32.5386C47.3879 33.5743 46.7115 35.0637 46.7115 35.0637C46.7115 35.0637 46.2195 32.464 40.1843 33.7193Z" fill="#7F372A"/><path d="M58.7188 33.0854C58.7188 33.0854 55.216 31.2864 52.2041 32.2434C51.5174 33.3164 52.2631 34.7664 52.2631 34.7664C52.2631 34.7664 52.6318 32.146 58.7188 33.0854Z" fill="#7F372A"/><path d="M47.6396 40.3988L48.8286 41.7608C49.0731 41.8685 50.0922 42.2859 51.2833 41.8436C52.6391 41.3402 53.1828 40.1067 53.274 39.8923L52.0239 43.4169C50.0456 43.2677 50.1896 43.2791 48.2113 43.131L47.6396 40.3988Z" fill="#E2A77D"/><path d="M61.4065 16.5324L54.7291 13.5287L45.7193 12.7229L38.231 15.2139L34.1139 23.8622V24.7416C34.1139 24.7416 51.2284 17.4138 64.9208 24.4485C63.6686 20.2693 61.4065 16.5324 61.4065 16.5324Z" fill="#244356"/><path d="M63.97 22.4734V24.607C63.9596 24.637 63.9503 24.6577 63.9399 24.6774C63.7494 25.1176 63.5194 25.5288 63.2387 25.8892C55.0741 20.5997 44.2237 20.6298 36.1088 26.0197C35.7784 25.6189 35.507 25.1777 35.2968 24.6774C35.2864 24.6567 35.276 24.637 35.2667 24.607V22.5635C44.0228 17.3838 55.1528 17.4335 63.97 22.4734Z" fill="#264859"/><path d="M63.97 24.607C63.9596 24.637 63.9503 24.6577 63.9399 24.6774C63.7494 25.1176 63.5194 25.5288 63.2387 25.8892C61.7359 27.883 59.0513 28.7147 56.6359 28.1637C52.0176 27.0616 47.2191 27.0616 42.6101 28.1637C40.2455 28.7043 37.6209 27.9234 36.1088 26.0197C35.7784 25.6189 35.507 25.1776 35.2968 24.6774C35.2864 24.6567 35.276 24.637 35.2667 24.607C44.4537 20.58 54.783 20.58 63.97 24.607Z" fill="#0B2530"/><path d="M52.9922 13.8053H51.1175L49.6799 13.0616L49.6177 13.0751L49.5546 13.0616L48.117 13.8053H46.2423C46.2423 13.8053 45.1185 18.1036 49.6167 20.9622C54.1159 18.1025 52.9922 13.8053 52.9922 13.8053Z" fill="#FF9F00"/><path d="M52.1481 14.608H50.7426L49.6654 14.0508L49.6188 14.0601L49.5722 14.0508L48.494 14.608H47.0885C47.0885 14.608 46.2465 17.8291 49.6188 19.9741C52.9901 17.8301 52.1481 14.608 52.1481 14.608Z" fill="#F4D954"/><path d="M68.1315 75.5153H65.1414L62.8493 74.3294L62.7499 74.3501L62.6504 74.3294L60.3584 75.5153H57.3682C57.3682 75.5153 55.5764 82.3687 62.7499 86.9301C69.9234 82.3687 68.1315 75.5153 68.1315 75.5153Z" fill="#FF9F00"/><path d="M66.7851 76.7944H64.5437L62.8254 75.9058L62.7509 75.9223L62.6763 75.9058L60.958 76.7944H58.7167C58.7167 76.7944 57.3744 81.9337 62.7509 85.3527C68.1274 81.9337 66.7851 76.7944 66.7851 76.7944Z" fill="#F4D954"/><path d="M55.8778 99.6582C55.246 99.7307 54.6038 99.7939 53.9513 99.8457C52.7395 99.9492 51.4966 99.9907 50.2537 100H49.9948C48.3376 100 46.7012 99.9171 45.0854 99.7628C44.9094 99.7411 44.7436 99.7317 44.5676 99.711L46.2765 73.2273L48.5448 67.9969C48.5448 67.9969 47.0015 65.8737 46.4526 64.2672C46.2765 63.7286 46.204 63.2532 46.3387 62.9311C46.3697 62.8483 46.4112 62.7768 46.4526 62.6929C46.4526 62.6825 46.463 62.6722 46.463 62.6722C46.7633 62.1243 47.2812 61.5132 47.7576 61.0057C48.3583 60.3635 48.9073 59.8871 48.9073 59.8871L49.073 59.8767L50.2227 59.8239L51.5484 59.8871C51.5484 59.8871 52.2941 60.2185 52.9777 60.7985C53.5991 61.3371 54.1792 62.0622 54.1067 62.9322C54.0963 63.0368 54.0756 63.161 54.0549 63.2853C53.7027 64.8493 51.9109 67.9979 51.9109 67.9979L54.1792 73.2284L55.8778 99.6582Z" fill="#0B2530"/><path d="M49.2242 59.7794C49.2242 59.7794 42.0051 56.5707 40.2382 53.2843C39.1786 53.3951 35.7814 55.6043 35.7814 55.6043C35.7814 55.6043 41.1496 62.2931 44.3987 66.0373C44.4805 66.1315 44.6038 66.1533 44.6431 66.0352C44.9352 65.1631 45.4479 63.9896 46.3666 62.7944C47.6147 61.1683 48.3676 60.2444 49.2242 59.7794Z" fill="#2A4F5E"/><path d="M51.5495 59.8912C51.5495 59.8912 57.6583 55.9306 59.3268 52.6442C60.2756 52.754 63.5392 54.8244 64.0021 55.0119C64.0021 55.0119 58.7189 62.0435 55.5205 66.0186C55.332 66.2527 55.3165 66.4971 55.216 66.2134C54.8908 65.304 54.6878 63.6364 53.8167 62.4806C52.6515 60.9353 52.3926 60.4101 51.5495 59.8912Z" fill="#2A4F5E"/><path d="M41.1497 80.6297H31.3828V82.5821H41.1497V80.6297Z" fill="#F4D954"/></svg>